<svg width="53" height="58" fill="none" xmlns="http://www.w3.org/2000/svg"><path d="M52.039 12.333c-.072-.213-.072-.355-.145-.497l-.216-.426c-.073-.142-.217-.213-.362-.284L43.37 7.291l-7.007-3.338L28.414.118c-.288-.142-.577-.142-.866-.071-.29.07-.506.284-.65.568l-9.97 19.957H3.922C2.261 20.572.96 21.85.96 23.484v31.604C.96 56.722 2.26 58 3.922 58h41.541c1.662 0 2.963-1.278 2.963-2.912v-7.386h1.228c.65 0 1.156-.497 1.156-1.136v-8.452c0-.64-.506-1.136-1.156-1.136h-1.228v-8.31c0-1.633-1.3-2.912-2.962-2.912h-.073l6.502-12.996c.073-.143.073-.284.145-.427zM28.414 2.675l5.78 2.77c-1.445 1.917-3.757 3.124-6.213 3.124a8.27 8.27 0 0 1-2.312-.355l2.745-5.54zm-3.9 7.599c1.083.355 2.167.568 3.323.568 3.395 0 6.502-1.633 8.308-4.403l5.13 2.485c-1.446 4.262.288 8.95 4.117 11.364l-2.673 5.397h-6.502v.071a8.02 8.02 0 0 0-4.118-4.545 8.167 8.167 0 0 0-3.612-.852c-3.179 0-5.997 1.775-7.441 4.545-.145.284-.217.497-.362.781h-3.829l7.658-15.411zm9.247 15.482H23.285c1.012-1.917 3.034-3.053 5.274-3.053.94 0 1.806.213 2.6.568a5.827 5.827 0 0 1 2.602 2.485zM3.273 23.413c0-.284.289-.568.65-.568h11.849l-1.445 2.84H3.923c-.216 0-.433 0-.65.071v-2.343zM48.427 39.25h.072v6.178h-6.863c-.65 0-1.156-.497-1.156-1.136v-3.906c0-.64.505-1.136 1.156-1.136h6.79zm-2.385-10.583v8.31h-4.479c-1.95 0-3.468 1.562-3.468 3.409v3.906c0 1.918 1.59 3.409 3.468 3.409h4.48v7.386c0 .355-.29.64-.65.64H3.922a.642.642 0 0 1-.65-.64v-26.42c0-.355.289-.639.65-.639h41.471c.36 0 .65.284.65.64zm.506-10.369c-2.673-1.846-3.901-5.255-3.034-8.31l5.78 2.77-2.746 5.54z" fill="#006"/></svg>