<svg width="51" height="58" fill="none" xmlns="http://www.w3.org/2000/svg"><path d="M47.133 0H21.567c-1.63 0-2.95 1.298-2.95 2.9v11.123L8.604 21.58a4.813 4.813 0 0 0-2.147 2.915L1.18 45.24a8.5 8.5 0 0 0-.264 2.112V58h1.966V47.352c0-.554.07-1.106.206-1.643L8.366 24.96A2.89 2.89 0 0 1 9.68 23.2c.029-.017.056-.037.084-.056l8.85-6.68V28.6l-3.645 3.583 1.39 1.367 12.75-12.532a2.524 2.524 0 0 1 3.527 0c.467.46.73 1.084.73 1.733v.151a2.412 2.412 0 0 1-.583 1.576l-8.014 8.707a.956.956 0 0 0-.241.795l.074.484c.984 6.293-2.645 11.757-9.243 13.92l.621 1.836a16.515 16.515 0 0 0 7.432-4.787h7.08l-3.703 5.2a10.737 10.737 0 0 1-5.063 3.858l-4.44 1.637a.967.967 0 0 0-.637.905V58h1.967v-.297l3.802-1.401a12.704 12.704 0 0 0 5.985-4.561l4.492-6.308h14.237c1.63 0 2.95-1.298 2.95-2.9V2.9c0-1.602-1.32-2.9-2.95-2.9zm.984 42.533c0 .534-.44.967-.984.967H24.812a13.756 13.756 0 0 0 1.731-9.332v-.027l7.717-8.385a4.347 4.347 0 0 0 1.073-2.854v-.15c.001-2.422-1.995-4.385-4.457-4.386-1.184 0-2.32.462-3.157 1.285l-7.136 7.015V2.9c0-.534.44-.967.984-.967h25.566c.543 0 .984.433.984.967v39.633z" fill="#006"/></svg>