<svg width="59" height="58" fill="none" xmlns="http://www.w3.org/2000/svg"><path d="M58.078 19.517c0-2.267-1.876-4.11-4.181-4.11a4.19 4.19 0 0 0-2.957 1.204l-2.732 2.686-3.036 2.984v-8.76c3.122-.442 5.531-3.082 5.531-6.271 0-3.498-2.895-6.344-6.453-6.344H7.375C3.817.906.922 3.752.922 7.25v45.313c0 .5.413.906.922.906h4.61v2.718c0 .5.412.907.921.907H44.25a.915.915 0 0 0 .922-.907v-22.28l8.949-8.797.946-.931a12.081 12.081 0 0 1-3.395 6.212l-4.385 4.311 1.303 1.282 4.385-4.312a13.818 13.818 0 0 0 4.166-9.592 4.022 4.022 0 0 0 .937-2.563zm-5.834-1.625a2.343 2.343 0 0 1 1.653-.673c1.288 0 2.337 1.031 2.337 2.298 0 .614-.243 1.19-.685 1.625l-2.08 2.045-3.306-3.25 2.08-2.045zm-3.385 3.327 1.002.984L38.258 33.61l-1.001-.984L48.859 21.22zM26.934 45.134l1.897-3.73 2.8 2.754-3.793 1.864-.904-.888zm2.948-5.259 6.071-5.969 3.306 3.25-6.072 5.969-3.305-3.25zM44.25 2.719c2.542 0 4.61 2.032 4.61 4.531 0 2.499-2.068 4.531-4.61 4.531H11.883a6.27 6.27 0 0 0 1.945-4.531 6.27 6.27 0 0 0-1.945-4.531H44.25zm-35.953 8.97V9.063c0-.499.414-.906.922-.906h2.672c-.368 1.773-1.79 3.172-3.594 3.534zM2.766 51.657V7.25c0-2.499 2.067-4.531 4.609-4.531 2.225 0 4.088 1.56 4.516 3.625H9.22c-1.525 0-2.766 1.22-2.766 2.718v42.594H2.766zm40.562 3.625H8.297V13.594h35.031v10.5l-4.069 4H11.984v1.812h25.431l-1.843 1.813H11.983v1.812h21.744l-5.802 5.703a.887.887 0 0 0-.162.24l-.01-.005-2.766 5.438a.894.894 0 0 0 .174 1.045l.269.267-2.114 2.078 1.303 1.281 2.114-2.078.27.266a.93.93 0 0 0 1.064.17l5.532-2.719-.006-.01a.903.903 0 0 0 .244-.16l7.375-7.25 2.115-2.078V55.28zm-2.766-19.406-1-.984 11.602-11.406 1.001.984-11.602 11.406z" fill="#006"/></svg>