<svg width="59" height="58" fill="none" xmlns="http://www.w3.org/2000/svg"><g clip-path="url(#a)"><path d="m35.998 25.64 7.682 5.375a.996.996 0 0 0 1.14 0l7.682-5.376a5.945 5.945 0 0 0 2.565-4.847V9.355a.966.966 0 0 0-.59-.888l-9.834-4.176a.999.999 0 0 0-.779 0l-9.833 4.176a.966.966 0 0 0-.59.888v11.437a5.945 5.945 0 0 0 2.557 4.847zM35.4 9.99l8.85-3.758L53.1 9.99v10.802a4.02 4.02 0 0 1-1.74 3.278l-7.11 4.97-7.11-4.976a4.016 4.016 0 0 1-1.74-3.272V9.99z" fill="#787A8E"/><path d="M41.693 23.007a.995.995 0 0 0 1.358-.17l7.867-9.666a.956.956 0 0 0-.153-1.36.995.995 0 0 0-1.383.151l-7.277 8.936-3.165-2.338a.997.997 0 0 0-.976-.116.96.96 0 0 0-.204 1.662l3.933 2.9z" fill="#787A8E"/><path d="M1.967 51.233h.983V55.1c0 1.602 1.32 2.9 2.95 2.9h5.9c1.63 0 2.95-1.298 2.95-2.9v-3.867h23.6V55.1c0 1.602 1.32 2.9 2.95 2.9h5.9c1.63 0 2.95-1.298 2.95-2.9v-3.867h.983c1.086 0 1.967-.865 1.967-1.933V34.8a4.748 4.748 0 0 0-1.7-3.644l3.383-2.367c2.636-1.84 4.206-4.818 4.217-7.997V6.813a.966.966 0 0 0-.59-.887L44.643.079a.999.999 0 0 0-.779 0L30.09 5.926a.966.966 0 0 0-.59.887v3.82H14.622c-2.085.001-3.942 1.294-4.635 3.227L4.195 30.038C1.79 30.386.007 32.411 0 34.8v14.5c0 1.068.88 1.933 1.967 1.933zM12.783 55.1c0 .534-.44.967-.983.967H5.9a.975.975 0 0 1-.983-.967v-3.867h7.866V55.1zM8.85 49.3H6.883v-1.933H8.85V49.3zm39.333 5.8c0 .534-.44.967-.983.967h-5.9a.975.975 0 0 1-.983-.967v-3.867h7.866V55.1zm-1.966-5.8H44.25v-1.933h1.967V49.3zM31.467 7.448 44.25 2.02l12.783 5.43v13.34a7.87 7.87 0 0 1-3.391 6.422l-9.392 6.576-9.392-6.573a7.87 7.87 0 0 1-3.391-6.422V7.448zm14.75 28.319c.543 0 .983.432.983.966v1.934c0 .533-.44.966-.983.966h-5.9a.975.975 0 0 1-.984-.966c0-1.602 1.321-2.9 2.95-2.9h3.934zM29.5 16.433v1.934h-6.883v-1.934H29.5zm0-1.933h-1.967v-1.933H29.5V14.5zm-17.658 0a2.947 2.947 0 0 1 2.78-1.933h10.945V14.5h-2.95c-1.087 0-1.967.866-1.967 1.933v1.934c0 1.067.88 1.933 1.967 1.933H29.5v.492c.01 3.179 1.581 6.157 4.218 7.997l1.682 1.178H6.305L11.842 14.5zM1.967 34.8c0-1.602 1.32-2.9 2.95-2.9h33.246l2.972 2.08c-2.205.521-3.762 2.457-3.768 4.687 0 1.601 1.32 2.9 2.95 2.9h5.9c1.629 0 2.95-1.299 2.95-2.9v-1.934a2.902 2.902 0 0 0-1.883-2.696l2.434-1.704a2.85 2.85 0 0 1 1.415 2.467v14.5h-2.95v-1.933c0-1.068-.88-1.934-1.966-1.934H44.25c-1.086 0-1.967.866-1.967 1.934V49.3H10.817v-1.933c0-1.068-.88-1.934-1.967-1.934H6.883c-1.086 0-1.966.866-1.966 1.934V49.3h-2.95V34.8z" fill="#006"/><path d="M17.7 14.5h-1.683a2.954 2.954 0 0 0-2.782 1.933L9.543 26.746a.963.963 0 0 0 .601 1.233.988.988 0 0 0 1.255-.591l3.691-10.309a.982.982 0 0 1 .927-.646H17.7a.975.975 0 0 0 .983-.966.975.975 0 0 0-.983-.967zM6.883 41.567h5.9c1.63 0 2.95-1.299 2.95-2.9-.003-2.669-2.202-4.83-4.916-4.834H6.883c-1.629 0-2.95 1.299-2.95 2.9v1.934c0 1.601 1.321 2.9 2.95 2.9zM5.9 36.733c0-.534.44-.966.983-.966h3.934c1.629 0 2.95 1.298 2.95 2.9 0 .533-.44.966-.984.966h-5.9a.975.975 0 0 1-.983-.966v-1.934zm13.767 10.634h13.766c1.086 0 1.967-.866 1.967-1.934v-3.866c0-1.068-.88-1.934-1.967-1.934H19.667c-1.087 0-1.967.866-1.967 1.934v3.866c0 1.068.88 1.934 1.967 1.934zm0-5.8h13.766v3.866H19.667v-3.866z" fill="#006"/></g><defs><clipPath id="a"><path fill="#fff" d="M0 0h59v58H0z"/></clipPath></defs></svg>