<svg width="59" height="58" fill="none" xmlns="http://www.w3.org/2000/svg"><path d="M58.017 9.667h-23.6a.975.975 0 0 0-.984.966v8.7c0 .534.441.967.984.966a1 1 0 0 0 .31-.05l1.236-.404c1.342-.432 2.786.287 3.225 1.607.44 1.319-.292 2.738-1.634 3.17a2.598 2.598 0 0 1-1.59 0l-1.237-.405a.987.987 0 0 0-1.243.612.955.955 0 0 0-.05.304v7.734h-7.867a.975.975 0 0 0-.983.967c0 .104.017.207.05.305l.412 1.215c.44 1.32-.292 2.739-1.634 3.17-1.342.432-2.786-.287-3.225-1.606a2.473 2.473 0 0 1 0-1.564l.412-1.215a.963.963 0 0 0-.622-1.223.998.998 0 0 0-.31-.05h-8.85a.975.975 0 0 0-.984.967v23.2c0 .534.44.967.984.967h47.2a.975.975 0 0 0 .983-.967v-46.4a.975.975 0 0 0-.983-.966zM33.484 48.029a.952.952 0 0 0-.05.304v7.734H11.8V34.8h6.503c-.752 2.342.57 4.84 2.953 5.578 2.383.739 4.923-.561 5.674-2.903.28-.87.28-1.805 0-2.675h6.503v7.733c0 .534.441.967.984.966a1 1 0 0 0 .31-.05l1.236-.404c1.342-.432 2.786.287 3.225 1.606.44 1.32-.292 2.74-1.634 3.17a2.598 2.598 0 0 1-1.59 0l-1.237-.404a.987.987 0 0 0-1.243.612zm23.55 8.038H35.4v-6.393c2.382.739 4.923-.561 5.674-2.903.752-2.342-.57-4.84-2.953-5.578a4.598 4.598 0 0 0-2.721 0V34.8h7.867a.975.975 0 0 0 .982-.967.955.955 0 0 0-.05-.305l-.412-1.215c-.44-1.32.292-2.739 1.634-3.17 1.342-.432 2.786.287 3.225 1.606.17.508.17 1.056 0 1.564l-.412 1.215a.963.963 0 0 0 .622 1.223 1 1 0 0 0 .31.05h7.867v21.266zm0-23.2H50.53c.75-2.342-.572-4.84-2.954-5.578-2.383-.74-4.923.56-5.674 2.903-.28.87-.28 1.804 0 2.675H35.4v-6.393c1.366.435 2.86.2 4.02-.63a4.399 4.399 0 0 0 1.057-6.203c-1.146-1.579-3.2-2.246-5.077-1.648V11.6h21.633v21.267z" fill="#006"/><path d="M28.288 8.326a4.598 4.598 0 0 0-2.721 0V.966A.975.975 0 0 0 24.583 0H.983A.975.975 0 0 0 0 .967v23.2c0 .534.44.966.983.966H8.47c-.75 2.342.571 4.84 2.954 5.579 2.382.738 4.923-.562 5.674-2.904.28-.87.28-1.804 0-2.675h7.486a.975.975 0 0 0 .984-.966v-7.36c2.382.739 4.923-.561 5.674-2.903.751-2.342-.57-4.84-2.953-5.578zm-.567 6.63a2.598 2.598 0 0 1-1.59 0l-1.237-.406a.987.987 0 0 0-1.244.612.953.953 0 0 0-.05.305V23.2h-7.867a.975.975 0 0 0-.982.967c0 .104.017.207.05.305l.412 1.215c.44 1.32-.292 2.739-1.634 3.17-1.342.432-2.786-.287-3.226-1.606a2.473 2.473 0 0 1 0-1.564l.412-1.215a.963.963 0 0 0-.622-1.223 1 1 0 0 0-.31-.05H1.967V1.934H23.6v7.734c0 .534.441.966.984.966a1 1 0 0 0 .31-.05l1.236-.405c1.342-.432 2.786.288 3.225 1.607.44 1.319-.292 2.739-1.634 3.17z" fill="#787A8E"/></svg>