<svg width="59" height="58" fill="none" xmlns="http://www.w3.org/2000/svg"><path d="M17.4 7.646c.478 0 .864-.38.864-.85a.857.857 0 0 0-.864-.849.857.857 0 0 0-.864.85c0 .47.387.85.864.85z" fill="#787A8E"/><path d="M48.513 10.811c.478 0 .865-.38.865-.85a.858.858 0 0 0-.865-.85.857.857 0 0 0-.864.85c0 .47.387.85.864.85z" fill="#000"/><path d="M15.357 5.19a.867.867 0 0 0 1.094-.534.846.846 0 0 0-.544-1.076 3.477 3.477 0 0 0-3.544.814 3.362 3.362 0 0 0 0 4.806c.66.649 1.533.994 2.431.994.371 0 .747-.059 1.113-.18a.846.846 0 0 0 .544-1.076.867.867 0 0 0-1.094-.534 1.737 1.737 0 0 1-1.772-.406 1.68 1.68 0 0 1 0-2.403 1.738 1.738 0 0 1 1.772-.405z" fill="#787A8E"/><path d="M31.228 23.79c3.336 0 6.05-2.669 6.05-5.948 0-3.28-2.714-5.947-6.05-5.947s-6.05 2.668-6.05 5.947c0 3.28 2.714 5.947 6.05 5.947zm0-10.196c2.383 0 4.322 1.905 4.322 4.248 0 2.342-1.939 4.248-4.322 4.248s-4.321-1.906-4.321-4.248c0-2.343 1.939-4.248 4.321-4.248z" fill="#006"/><path d="m38.416 56.344-2.867-.939v-9.672c1.006-.351 1.729-1.295 1.729-2.403V28.603c0-1.717-1.422-3.115-3.169-3.115h-5.762c-1.447 0-2.67.96-3.048 2.266h-3.578V.85c0-.47-.387-.85-.864-.85h-10.37c-1.43 0-2.594 1.143-2.594 2.549v.85H3.572a.857.857 0 0 0-.864.849v11.894c0 .47.387.85.864.85h6.914c1.43 0 2.593-1.143 2.593-2.549v-.85h6.914v10.762h-.864c-1.43 0-2.593 1.144-2.593 2.55 0 1.405 1.163 2.548 2.593 2.548h.864V57.15c0 .47.387.85.864.85s.864-.38.864-.85V29.453h3.457V43.33c0 1.108.723 2.052 1.729 2.403v9.672l-2.866.94a.847.847 0 0 0-.547 1.074.864.864 0 0 0 1.093.537l3.457-1.133a.85.85 0 0 0 .591-.806V45.733c1.006-.351 1.729-1.295 1.729-2.403v-.91c.57.08 1.158.08 1.728 0v.91c0 1.108.723 2.052 1.729 2.403v10.284c0 .366.238.69.59.806l3.458 1.133a.864.864 0 0 0 1.093-.537.846.846 0 0 0-.547-1.075zM4.436 5.098h3.457v9.345c0 .298.053.584.149.85H4.436V5.098zm6.914 9.345c0 .469-.387.85-.864.85a.858.858 0 0 1-.864-.85c0-.468.387-.85.864-.85h.864v.85zm-.864-2.548c-.303 0-.594.051-.864.146V2.549c0-.469.387-.85.864-.85h9.507v10.195h-9.507zm8.643 15.859a.858.858 0 0 1-.865-.85c0-.468.388-.85.865-.85h.864v1.7h-.864zm9.218-.567h2.017v5.948c0 .469.387.85.864.85s.864-.381.864-.85v-5.948h2.017c.794 0 1.44.636 1.44 1.416v7.08h-8.642v-7.08c0-.78.646-1.416 1.44-1.416zm5.109 13.459a.875.875 0 0 0-.788-.107 4.418 4.418 0 0 1-2.88 0 .877.877 0 0 0-.787.107.845.845 0 0 0-.366.694v1.99c0 .468-.387.85-.864.85a.858.858 0 0 1-.864-.85v-5.947h8.642v5.947c0 .468-.387.85-.864.85a.858.858 0 0 1-.864-.85v-1.99a.845.845 0 0 0-.365-.694zm9.007-22.804c0 3.28 2.714 5.947 6.05 5.947s6.05-2.668 6.05-5.947a5.918 5.918 0 0 0-2.82-5.03c.33-.494.48-1.092.414-1.684a2.528 2.528 0 0 0 .55-2.504 2.59 2.59 0 0 0-1.942-1.707 2.613 2.613 0 0 0-4.504 0 2.59 2.59 0 0 0-1.942 1.707c-.29.88-.064 1.838.55 2.504a2.54 2.54 0 0 0 .415 1.684 5.917 5.917 0 0 0-2.82 5.03zm10.26-.96a4.305 4.305 0 0 1-3.166-2.929c.188.002.377-.016.562-.054a4.264 4.264 0 0 1 2.604 2.983zm-5.815-2.984c.177.037.356.057.536.057l.025-.001a4.306 4.306 0 0 1-3.165 2.928 4.264 4.264 0 0 1 2.604-2.984zm1.605 8.192c-2.112 0-3.875-1.498-4.247-3.47a6.067 6.067 0 0 0 4.247-2.815 6.068 6.068 0 0 0 4.248 2.814c-.373 1.973-2.135 3.47-4.248 3.47zm-2.55-12.94a.866.866 0 0 1 .855-.587c.399.01.755-.24.864-.617a.866.866 0 0 1 .831-.618c.385 0 .726.254.831.618a.864.864 0 0 0 .864.617.866.866 0 0 1 .855.586.845.845 0 0 1-.34.968.842.842 0 0 0-.33.999.845.845 0 0 1-.304.98.88.88 0 0 1-1.042-.02.876.876 0 0 0-1.068 0 .88.88 0 0 1-1.041.02.844.844 0 0 1-.303-.98.842.842 0 0 0-.33-.999.845.845 0 0 1-.342-.968zM55.7 56.344l-2.865-.939V41.78a5.153 5.153 0 0 0 2.592.701c.478 0 .865-.38.865-.85v-2.303a7.556 7.556 0 0 0-1.729-4.804v-5.92c0-1.717-1.421-3.115-3.169-3.115h-5.761c-1.748 0-3.17 1.398-3.17 3.116v5.92a7.557 7.557 0 0 0-1.728 4.803v2.304c0 .47.387.85.864.85.925 0 1.818-.25 2.593-.702v13.626l-2.866.94a.847.847 0 0 0-.547 1.074.864.864 0 0 0 1.094.537l3.457-1.133a.851.851 0 0 0 .59-.806V41.78a5.152 5.152 0 0 0 5.186 0v14.238c0 .366.238.69.591.806l3.457 1.133a.864.864 0 0 0 1.093-.537.846.846 0 0 0-.546-1.075zm-7.187-15.563a3.385 3.385 0 0 1-2.75-1.406.869.869 0 0 0-.707-.36.869.869 0 0 0-.706.36 3.373 3.373 0 0 1-1.886 1.295v-1.343c0-1.448.537-2.844 1.512-3.931a.842.842 0 0 0 .216-.562v-6.23a1.43 1.43 0 0 1 1.44-1.416h5.762c.794 0 1.44.635 1.44 1.416v6.23c0 .207.077.407.217.562a5.882 5.882 0 0 1 1.512 3.931v1.343a3.372 3.372 0 0 1-1.886-1.295.869.869 0 0 0-.707-.36.869.869 0 0 0-.706.36 3.385 3.385 0 0 1-2.75 1.406z" fill="#006"/></svg>