<svg width="17" height="22" fill="none" xmlns="http://www.w3.org/2000/svg"><path d="M8.506 3.293a3.66 3.66 0 1 0 0 7.322 3.66 3.66 0 0 0 0-7.322zm0 6.044a2.383 2.383 0 1 1 2.383-2.383 2.383 2.383 0 0 1-2.383 2.377v.006z" fill="#fff"/><path d="M8.506.278A7.533 7.533 0 0 0 .98 7.772c0 2.984 1.674 5.482 2.9 7.303l.224.332a63.617 63.617 0 0 0 3.923 5.11l.486.57.485-.57a63.775 63.775 0 0 0 3.923-5.11l.224-.339c1.22-1.82 2.894-4.312 2.894-7.296A7.532 7.532 0 0 0 8.506.278zm3.572 14.055-.23.339a51.95 51.95 0 0 1-3.342 4.408c-.754-.913-2.242-2.76-3.341-4.408l-.224-.339c-1.13-1.686-2.683-3.993-2.683-6.587a6.248 6.248 0 0 1 12.497 0c0 2.62-1.546 4.926-2.677 6.587z" fill="#fff"/></svg>