<svg width="118" height="30" fill="none" xmlns="http://www.w3.org/2000/svg"><path fill-rule="evenodd" clip-rule="evenodd" d="M44.751.655h72.255v29.318H44.523c5.233-3.082 7.266-8.627 7.266-14.725 0-7.06-2.464-11.94-7.038-14.593zm19.682 21.343c-3.287 0-5.658-.784-7.115-2.352-1.455-1.568-2.184-3.903-2.184-7.007 0-6.239 3.181-9.359 9.543-9.359 3.026 0 5.393.874 7.102 2.622L69.02 8.67c-1.172-1.143-2.627-1.715-4.369-1.715-1.904 0-3.294.478-4.172 1.433-.88.956-1.318 2.389-1.318 4.3s.418 3.345 1.256 4.3c.838.956 2.258 1.433 4.259 1.433 1.073 0 1.944-.151 2.61-.453.668-.302 1.327-.764 1.978-1.384l2.636 2.597a9.228 9.228 0 0 1-2.965 2.07c-1.131.498-2.632.747-4.503.747zm10.208-.27L81.89 3.453h4.051l7.297 18.277h-4.149l-1.171-2.99h-8.2l-1.172 2.99h-3.905zm6.346-6.296h5.662l-2.832-7.227-2.83 7.227zm27.267 6.297-3.343-6.028h-4.051v6.028h-3.905V3.574h8.737c1.383 0 2.546.139 3.49.417.944.277 1.668.693 2.172 1.249a4.914 4.914 0 0 1 1.074 1.85c.211.678.317 1.482.317 2.413 0 3.038-1.269 4.957-3.807 5.758l3.587 6.468h-4.271zm-7.394-9.482h4.71c1.123 0 1.928-.184 2.416-.551.488-.367.732-1.05.732-2.046 0-1.029-.24-1.727-.72-2.095-.48-.367-1.305-.55-2.477-.55h-4.661v5.242zM55.613 25.333v-.496h.59v-.219c0-.333.072-.586.217-.76.146-.171.404-.258.774-.258h.358v.479h-.29c-.196 0-.33.046-.404.14-.075.094-.113.227-.113.4v.218h.807v.496h-.807v2.633h-.543v-2.633h-.589zm8.082 2.633v-3.129h.537v3.129h-.537zm-.006-3.506v-.663h.549v.663h-.549zm7.677 3.506v-3.1l.432-.029.044.3c.184-.249.567-.372 1.15-.372.239 0 .434.029.588.087.153.058.267.15.342.275.074.126.124.259.15.4.027.14.04.318.04.531v1.908h-.543v-1.8c0-.12-.004-.216-.012-.287a1.167 1.167 0 0 0-.05-.231.388.388 0 0 0-.118-.189.658.658 0 0 0-.221-.11 1.178 1.178 0 0 0-.35-.044c-.355 0-.595.077-.718.233-.123.156-.185.387-.185.695v1.733h-.549zm10.765.056c-.418 0-.709-.084-.871-.25-.163-.168-.244-.4-.244-.695 0-.443.147-.745.44-.906.293-.161.832-.242 1.617-.242h.168c-.008-.244-.061-.413-.16-.51-.1-.094-.306-.143-.62-.143-.332 0-.638.089-.918.265l-.286-.427c.127-.087.306-.166.535-.24.23-.073.47-.11.72-.11.266 0 .48.023.644.068a.722.722 0 0 1 .381.23c.09.11.151.237.183.383.031.146.048.338.048.574v1.114c0 .154.015.25.047.29.032.04.118.059.26.059v.478a1.217 1.217 0 0 1-.223.011c-.169 0-.289-.026-.362-.079a.52.52 0 0 1-.17-.275c-.191.27-.587.405-1.189.405zm.09-.473c.358 0 .618-.075.779-.228.16-.151.24-.396.24-.734v-.191h-.14c-.433 0-.76.02-.98.059-.22.04-.373.103-.457.191-.084.089-.126.219-.126.391 0 .177.05.306.152.388.1.083.278.124.532.124zm8.787.417v-3.1l.431-.029.045.3c.183-.249.566-.372 1.149-.372.239 0 .435.029.588.087a.65.65 0 0 1 .342.275c.075.126.125.259.151.4.027.14.04.318.04.531v1.908h-.544v-1.8c0-.12-.004-.216-.011-.287a1.174 1.174 0 0 0-.05-.231.392.392 0 0 0-.118-.189.665.665 0 0 0-.222-.11 1.18 1.18 0 0 0-.35-.044c-.355 0-.594.077-.717.233-.123.156-.185.387-.185.695v1.733h-.55zm11.202.056c-.564 0-.959-.14-1.182-.42-.224-.279-.337-.68-.337-1.206 0-.529.113-.933.339-1.212.226-.28.627-.42 1.203-.42.496 0 .883.156 1.159.467l-.398.377a1.01 1.01 0 0 0-.761-.315c-.367 0-.624.093-.771.279-.148.185-.222.464-.222.835 0 .375.073.656.219.844.145.187.404.281.774.281.291 0 .554-.107.789-.32l.364.349a1.865 1.865 0 0 1-.52.348 1.677 1.677 0 0 1-.656.113zm9.381.006c-.25 0-.467-.029-.65-.085a1.22 1.22 0 0 1-.44-.225 1.026 1.026 0 0 1-.266-.357 1.637 1.637 0 0 1-.137-.445 3.227 3.227 0 0 1-.037-.52 2.8 2.8 0 0 1 .065-.639c.042-.181.117-.351.224-.509a.99.99 0 0 1 .47-.36 2.05 2.05 0 0 1 .759-.123c.18 0 .339.019.477.055.138.038.254.085.347.141a.728.728 0 0 1 .236.234c.063.1.112.195.145.287.034.092.059.208.076.349a4.543 4.543 0 0 1 .031.779h-2.303c.018.311.1.547.244.706.143.16.396.239.759.239.231 0 .42-.026.565-.076.146-.05.289-.129.426-.233l.292.382c-.34.266-.767.4-1.283.4zm-.028-2.78c-.337 0-.575.075-.718.223-.142.148-.225.366-.252.655h1.782a4.144 4.144 0 0 0-.025-.284c-.01-.07-.03-.147-.061-.234a.454.454 0 0 0-.129-.196.698.698 0 0 0-.233-.116 1.215 1.215 0 0 0-.364-.048z" fill="#FEFEFE"/><path d="M.006 29.42V1.115c6.362 0 16.418-.802 21.148 2.169-1.361 1.517-2.373 3.385-3.014 5.601-2.195-2.69-7.914-2.155-11.893-2.155v17.23c8.808 0 13.318.675 13.318-8.71 0-3.805.732-7.662 3.35-10.554h.002C25.395 2.004 29.25.656 34.481.656c9.97 0 14.955 4.865 14.955 14.593 0 18.536-19.763 15.728-24.925 11.999 1.519-1.614 2.405-3.537 2.929-5.693 2.748 3.897 11.02 3.591 13.682.513 2.687-3.108 2.703-10.288 0-13.389-2.7-3.098-10.58-3.098-13.281 0-2.826 3.241-1.516 9.351-2.921 13.518-2.137 6.33-8.596 7.225-14.945 7.225H.006z" fill="#FEFEFE"/></svg>