<svg width="117" height="30" fill="none" xmlns="http://www.w3.org/2000/svg"><path fill-rule="evenodd" clip-rule="evenodd" d="M44.745.717H117V29.76H44.516c5.234-3.053 7.266-8.547 7.266-14.586 0-6.995-2.463-11.83-7.037-14.457zM64.426 21.86c-3.286 0-5.657-.776-7.114-2.33-1.456-1.553-2.184-3.867-2.184-6.941 0-6.181 3.18-9.272 9.543-9.272 3.026 0 5.393.866 7.101 2.598l-2.758 2.742c-1.171-1.133-2.627-1.7-4.368-1.7-1.904 0-3.295.474-4.173 1.42-.879.947-1.318 2.367-1.318 4.26 0 1.893.419 3.313 1.257 4.26.838.946 2.257 1.42 4.259 1.42 1.073 0 1.944-.15 2.61-.45.668-.299 1.327-.756 1.978-1.37l2.635 2.572a9.222 9.222 0 0 1-2.965 2.051c-1.13.493-2.632.74-4.503.74zm10.21-.267 7.247-18.106h4.052l7.297 18.106h-4.15l-1.17-2.96h-8.2l-1.172 2.96h-3.905zm6.344-6.237h5.662l-2.83-7.16-2.832 7.16zm27.268 6.237-3.344-5.97h-4.051v5.97h-3.905V3.608h8.737c1.384 0 2.547.138 3.491.413.943.275 1.667.688 2.171 1.238.505.55.863 1.161 1.074 1.832.212.672.318 1.469.318 2.39 0 3.01-1.269 4.912-3.807 5.705l3.587 6.407h-4.271zm-7.395-9.393h4.711c1.122 0 1.928-.182 2.415-.546.489-.364.733-1.04.733-2.026 0-1.02-.24-1.711-.72-2.075-.48-.364-1.306-.547-2.477-.547h-4.662V12.2zM55.607 25.165v-.49h.589v-.218c0-.33.073-.582.218-.752.146-.171.404-.257.773-.257h.36v.474h-.292c-.195 0-.329.046-.404.14-.075.093-.112.224-.112.395v.217h.807v.49h-.807v2.609h-.543v-2.608h-.59zm8.081 2.608v-3.099h.538v3.099h-.538zm-.005-3.472v-.658h.549v.658h-.55zm7.677 3.472v-3.07l.432-.029.044.296c.183-.245.566-.368 1.149-.368.24 0 .435.029.588.086a.65.65 0 0 1 .342.273c.075.124.125.257.151.396.026.14.04.315.04.527v1.889h-.544v-1.784a2.83 2.83 0 0 0-.01-.284 1.15 1.15 0 0 0-.051-.228.384.384 0 0 0-.118-.187.66.66 0 0 0-.222-.108 1.187 1.187 0 0 0-.35-.045c-.355 0-.594.077-.717.231-.123.154-.185.384-.185.688v1.717h-.549zm10.765.055c-.418 0-.709-.082-.872-.247-.162-.166-.244-.395-.244-.689 0-.438.148-.737.44-.897.294-.16.833-.24 1.617-.24h.168c-.007-.24-.06-.409-.16-.504-.099-.095-.305-.142-.619-.142-.332 0-.638.088-.918.262l-.286-.424c.127-.085.305-.164.535-.236.23-.073.47-.11.72-.11.265 0 .48.023.644.068a.71.71 0 0 1 .381.229c.09.107.151.233.182.378.032.145.048.335.048.569v1.103c0 .152.016.248.048.287.031.039.118.059.26.059v.474c-.026.006-.1.01-.224.01-.168 0-.288-.025-.361-.077a.513.513 0 0 1-.171-.274c-.19.268-.587.401-1.188.401zm.09-.467c.358 0 .617-.076.778-.226.16-.15.241-.393.241-.728v-.189h-.14c-.433 0-.76.02-.98.059-.22.039-.373.102-.457.19-.084.086-.126.216-.126.386 0 .175.05.303.151.385.1.082.279.123.532.123zm8.786.412v-3.07l.432-.029.045.296c.183-.245.566-.368 1.149-.368.239 0 .434.029.588.086a.648.648 0 0 1 .342.273c.075.124.125.257.151.396.026.14.039.315.039.527v1.889h-.543v-1.784a2.86 2.86 0 0 0-.012-.284 1.152 1.152 0 0 0-.05-.228.388.388 0 0 0-.117-.187.665.665 0 0 0-.222-.108 1.188 1.188 0 0 0-.35-.045c-.355 0-.594.077-.718.231-.123.154-.184.384-.184.688v1.717H91zm11.203.055c-.565 0-.959-.138-1.183-.415-.224-.276-.336-.675-.336-1.195 0-.524.113-.924.339-1.2.226-.278.626-.416 1.202-.416.497 0 .883.154 1.16.462l-.398.374a1.016 1.016 0 0 0-.762-.312c-.366 0-.623.092-.771.276-.147.183-.221.46-.221.827 0 .372.073.65.219.836.145.186.403.279.773.279.291 0 .555-.106.79-.318l.364.346a1.856 1.856 0 0 1-.521.345 1.697 1.697 0 0 1-.655.111zm9.38.006c-.25 0-.467-.028-.65-.083a1.218 1.218 0 0 1-.439-.223 1.03 1.03 0 0 1-.267-.354 1.653 1.653 0 0 1-.137-.44 3.295 3.295 0 0 1-.037-.516c0-.242.022-.452.065-.633.043-.18.117-.348.224-.504a.988.988 0 0 1 .471-.356c.207-.082.46-.123.759-.123.18 0 .338.018.477.056a1.4 1.4 0 0 1 .347.14.712.712 0 0 1 .235.23c.064.098.112.193.146.285.034.09.059.205.076.345a4.895 4.895 0 0 1 .03.772h-2.303c.019.308.1.541.244.7.144.157.397.236.759.236.232 0 .421-.025.566-.075.146-.05.288-.127.426-.232l.291.38c-.34.264-.767.395-1.283.395zm-.028-2.753c-.336 0-.575.073-.717.22-.142.147-.226.363-.252.65h1.782a3.966 3.966 0 0 0-.026-.282 1.121 1.121 0 0 0-.061-.231.446.446 0 0 0-.129-.195.686.686 0 0 0-.232-.115 1.239 1.239 0 0 0-.365-.047z" fill="#006"/><path d="M0 29.215V1.172c6.362 0 16.417-.794 21.148 2.148-1.361 1.504-2.374 3.355-3.015 5.55-2.195-2.665-7.913-2.134-11.892-2.134v17.067c8.808 0 13.318.67 13.318-8.628 0-3.77.732-7.59 3.35-10.455h.001C25.39 2.053 29.244.718 34.476.718c9.97 0 14.954 4.82 14.954 14.457 0 18.362-19.762 15.58-24.924 11.886 1.518-1.598 2.405-3.505 2.928-5.64 2.749 3.86 11.021 3.558 13.682.51 2.687-3.08 2.703-10.193 0-13.266-2.7-3.068-10.58-3.068-13.28 0-2.826 3.212-1.516 9.265-2.922 13.393-2.136 6.27-8.596 7.157-14.944 7.157H0z" fill="#006"/></svg>