<svg width="42" height="42" fill="none" xmlns="http://www.w3.org/2000/svg"><g clip-path="url(#a)"><path d="m41.426 36.315-8.179-8.178a1.965 1.965 0 0 0-1.394-.575h-1.337a16.979 16.979 0 0 0 3.609-10.5C34.125 7.637 26.488 0 17.062 0 7.637 0 0 7.637 0 17.063c0 9.425 7.637 17.062 17.063 17.062 3.962 0 7.604-1.345 10.5-3.61v1.338c0 .525.205 1.025.574 1.394l8.178 8.179a1.96 1.96 0 0 0 2.781 0l2.322-2.322a1.978 1.978 0 0 0 .008-2.789zm-24.364-8.752c-5.8 0-10.5-4.693-10.5-10.5 0-5.8 4.693-10.5 10.5-10.5 5.8 0 10.5 4.692 10.5 10.5 0 5.8-4.692 10.5-10.5 10.5z" fill="#006"/></g><defs><clipPath id="a"><path fill="#fff" d="M0 0h42v42H0z"/></clipPath></defs></svg>