<svg width="53" height="58" viewBox="0 0 53 58" fill="none" xmlns="http://www.w3.org/2000/svg">
<path d="M52.0389 12.3334C51.9666 12.1204 51.9667 11.9783 51.8944 11.8363C51.8222 11.6943 51.7499 11.5522 51.6777 11.4102C51.6054 11.2681 51.4609 11.1971 51.3164 11.1261L43.3694 7.29094L36.3616 3.95294L28.4145 0.117794C28.1256 -0.0242486 27.8366 -0.0242486 27.5476 0.0467727C27.2586 0.117794 27.0419 0.330857 26.8974 0.614942L16.9275 20.5719H3.92326C2.2616 20.5719 0.961182 21.8503 0.961182 23.4838V28.5973V55.0882C0.961182 56.7217 2.2616 58.0001 3.92326 58.0001H45.4645C47.1262 58.0001 48.4266 56.7217 48.4266 55.0882V47.702H49.6548C50.305 47.702 50.8107 47.2049 50.8107 46.5657V38.1141C50.8107 37.4749 50.305 36.9778 49.6548 36.9778H48.4266V28.6683C48.4266 27.0348 47.1262 25.7564 45.4645 25.7564H45.3923L51.8944 12.7596C51.9667 12.6175 51.9666 12.4755 52.0389 12.3334ZM28.4145 2.67456L34.1942 5.44438C32.7493 7.36196 30.4374 8.56932 27.9811 8.56932C27.1864 8.56932 26.3917 8.42727 25.6692 8.21421L28.4145 2.67456ZM24.5133 10.2738C25.597 10.6289 26.6807 10.842 27.8366 10.842C31.2321 10.842 34.3387 9.20851 36.1448 6.43868L41.2743 8.92442C39.8294 13.1857 41.5633 17.8731 45.3923 20.2878L42.7192 25.6854H36.2171V25.7564C35.4946 23.7679 34.0497 22.1344 32.0991 21.2111C30.9431 20.6429 29.715 20.3588 28.4868 20.3588C25.308 20.3588 22.4904 22.1344 21.0455 24.9042C20.901 25.1883 20.8288 25.4013 20.6843 25.6854H16.8552L24.5133 10.2738ZM33.7607 25.7564H23.2851C24.2965 23.8389 26.3194 22.7025 28.559 22.7025C29.4982 22.7025 30.3652 22.9156 31.1599 23.2707C32.3158 23.8389 33.1828 24.6911 33.7607 25.7564ZM3.27304 23.4128C3.27304 23.1287 3.56203 22.8446 3.92326 22.8446H15.7716L14.3266 25.6854H3.92326C3.70652 25.6854 3.48978 25.6854 3.27304 25.7564V23.4128ZM48.4266 39.2505H48.4989V45.4293H48.4266H41.6355C40.9853 45.4293 40.4796 44.9322 40.4796 44.293V40.3868C40.4796 39.7476 40.9853 39.2505 41.6355 39.2505H48.4266ZM46.0425 28.6683V36.9778H41.5633C39.6126 36.9778 38.0955 38.5403 38.0955 40.3868V44.293C38.0955 46.2106 39.6849 47.702 41.5633 47.702H46.0425V55.0882C46.0425 55.4433 45.7535 55.7274 45.3923 55.7274H3.92326C3.56203 55.7274 3.27304 55.4433 3.27304 55.0882V28.6683C3.27304 28.3132 3.56203 28.0291 3.92326 28.0291H15.1213H21.6235H35.4224H43.5139H45.3923C45.7535 28.0291 46.0425 28.3132 46.0425 28.6683ZM46.5482 18.2992C43.8751 16.4527 42.647 13.0437 43.5139 9.98974L49.2936 12.7596L46.5482 18.2992Z" fill="#000066"/>
</svg>
