<svg width="59" height="58" viewBox="0 0 59 58" fill="none" xmlns="http://www.w3.org/2000/svg">
<path d="M29.5 57.0938C13.7415 57.0938 0.921875 44.4914 0.921875 29C0.921875 13.5086 13.7415 0.90625 29.5 0.90625C45.2585 0.90625 58.0781 13.5086 58.0781 29C58.0781 44.4914 45.2585 57.0938 29.5 57.0938Z" fill="white"/>
<path d="M29.5 1.8125C44.7497 1.8125 57.1562 14.0088 57.1562 29C57.1562 43.9912 44.7497 56.1875 29.5 56.1875C14.2503 56.1875 1.84375 43.9912 1.84375 29C1.84375 14.0088 14.2503 1.8125 29.5 1.8125ZM29.5 0C13.2077 0 0 12.9838 0 29C0 45.0162 13.2077 58 29.5 58C45.7923 58 59 45.0162 59 29C59 12.9838 45.7923 0 29.5 0Z" fill="#000066"/>
<path d="M17.4013 25.1048C17.4013 24.3209 17.4741 23.6439 17.6198 23.073C17.7655 22.5021 17.9581 22.0227 18.1969 21.6339C18.4357 21.2451 18.7113 20.9324 19.0238 20.6941C19.3372 20.4567 19.659 20.2727 19.9909 20.144C20.3218 20.0135 20.6537 19.9283 20.9846 19.8866C21.3147 19.844 21.6189 19.8241 21.8973 19.8241C22.161 19.8241 22.4541 19.8431 22.7786 19.8812C23.1031 19.9202 23.4304 20.0008 23.7604 20.1232C24.0914 20.2455 24.4122 20.424 24.7219 20.6588C25.0317 20.8935 25.3064 21.2061 25.5452 21.5985C25.7839 21.9909 25.9757 22.474 26.1223 23.0476C26.2679 23.6222 26.3407 24.3082 26.3407 25.1057V32.6865C26.3407 33.4704 26.2679 34.1483 26.1223 34.7183C25.9757 35.2892 25.7821 35.7741 25.5396 36.1719C25.2972 36.5707 25.0197 36.8951 24.7063 37.1434C24.3928 37.3917 24.072 37.5839 23.7457 37.7207C23.4184 37.8576 23.092 37.95 22.7675 37.9998C22.443 38.0488 22.1536 38.0732 21.8973 38.0732C21.6115 38.0732 21.3018 38.0488 20.968 37.9998C20.6334 37.95 20.2978 37.8585 19.9632 37.7207C19.6295 37.5848 19.3068 37.3945 18.9971 37.1489C18.6873 36.9033 18.4145 36.5816 18.1794 36.1828C17.9443 35.7841 17.7553 35.2974 17.6133 34.7237C17.4714 34.1501 17.4004 33.4704 17.4004 32.6865V25.1048H17.4013ZM20.2315 33.8311C20.2315 34.5724 20.3679 35.1116 20.6426 35.4478C20.9164 35.7831 21.335 35.9517 21.8973 35.9517C22.4458 35.9517 22.8551 35.7831 23.1252 35.4478C23.3963 35.1116 23.5309 34.5724 23.5309 33.8311V24.1179C23.5309 23.3349 23.3963 22.764 23.1252 22.406C22.8551 22.0489 22.4458 21.8704 21.8973 21.8704C21.335 21.8704 20.9164 22.0489 20.6426 22.406C20.3679 22.764 20.2315 23.334 20.2315 24.1179V33.8311Z" fill="#787A8E"/>
<path d="M31.3677 27.7076C31.0579 27.7076 30.7463 27.665 30.4338 27.5789C30.1213 27.4937 29.8383 27.3269 29.5857 27.0777C29.3331 26.8285 29.1275 26.4769 28.9699 26.0201C28.8122 25.5634 28.7339 24.9634 28.7339 24.2212V23.3639C28.7339 22.8773 28.7717 22.4568 28.8482 22.1006C28.9238 21.7453 29.028 21.4418 29.1616 21.1916C29.2953 20.9406 29.4493 20.7367 29.6226 20.5817C29.7959 20.4268 29.9812 20.3062 30.1775 20.2219C30.373 20.1358 30.573 20.0778 30.7758 20.0461C30.9805 20.0135 31.1796 19.9972 31.3751 19.9972C31.5594 19.9972 31.7521 20.0126 31.954 20.0416C32.155 20.0706 32.3522 20.1286 32.5449 20.2138C32.7385 20.299 32.921 20.4186 33.0962 20.5708C33.2695 20.7231 33.4225 20.9252 33.5525 21.1753C33.6834 21.4263 33.7858 21.7308 33.8623 22.0897C33.9379 22.4477 33.9766 22.8718 33.9766 23.3639V24.2212C33.9766 24.9535 33.8918 25.5471 33.724 26.0047C33.5553 26.4615 33.3423 26.8158 33.0842 27.0668C32.8261 27.317 32.5431 27.4873 32.2361 27.5762C31.9282 27.6641 31.6396 27.7076 31.3677 27.7076ZM31.3843 26.4334C31.7263 26.4334 31.966 26.2884 32.1015 25.9975C32.237 25.7066 32.3052 25.2534 32.3052 24.639V23.0839C32.3052 22.4631 32.2379 22.0073 32.1015 21.7127C31.9651 21.4182 31.7263 21.2723 31.3843 21.2723C31.0247 21.2723 30.774 21.4191 30.6302 21.7127C30.4864 22.0063 30.4145 22.4631 30.4145 23.0839V24.639C30.4145 25.2534 30.4864 25.7066 30.6302 25.9975C30.774 26.2884 31.0247 26.4334 31.3843 26.4334ZM36.308 20.1658H37.7839L34.0411 34.0069H32.5578L36.308 20.1658ZM36.3246 29.7847C36.3246 29.0515 36.4076 28.4661 36.5735 28.0257C36.7394 27.5852 36.9515 27.2454 37.2087 27.0079C37.4668 26.7696 37.7517 26.6119 38.0614 26.5349C38.3712 26.4578 38.6699 26.4189 38.9584 26.4189C39.1428 26.4189 39.3354 26.4343 39.5373 26.4633C39.7383 26.4923 39.9356 26.5503 40.1283 26.6355C40.3219 26.7207 40.5044 26.8394 40.6795 26.9925C40.8529 27.1448 41.0059 27.3469 41.1359 27.597C41.2668 27.848 41.3691 28.1525 41.4456 28.5114C41.5212 28.8694 41.5599 29.2935 41.5599 29.7856V30.6429C41.5599 31.1341 41.5203 31.5618 41.441 31.9243C41.3627 32.2877 41.2566 32.5977 41.123 32.8542C40.9893 33.1106 40.8363 33.3218 40.663 33.4867C40.4887 33.6535 40.3053 33.7831 40.1117 33.88C39.919 33.9761 39.7217 34.0422 39.5207 34.0767C39.3189 34.1111 39.1289 34.1292 38.9501 34.1292C38.7427 34.1292 38.5353 34.1111 38.326 34.0767C38.1167 34.0422 37.9158 33.9797 37.7231 33.8882C37.5304 33.7976 37.3479 33.6698 37.1764 33.503C37.0049 33.3372 36.8565 33.1269 36.733 32.8705C36.6076 32.614 36.509 32.3032 36.4352 31.937C36.3624 31.5718 36.3255 31.1395 36.3255 30.6429V29.7847H36.3246ZM37.995 31.058C37.995 31.6733 38.0669 32.1255 38.2108 32.4164C38.3546 32.7082 38.6062 32.8532 38.9649 32.8532C39.3069 32.8532 39.5466 32.7082 39.6821 32.4164C39.8176 32.1255 39.8858 31.6733 39.8858 31.058V29.5037C39.8858 28.883 39.8185 28.4271 39.6821 28.1326C39.5456 27.8381 39.3069 27.6922 38.9649 27.6922C38.6053 27.6922 38.3546 27.839 38.2108 28.1326C38.0669 28.4262 37.995 28.883 37.995 29.5037V31.058Z" fill="#787A8E"/>
</svg>
