<svg width="59" height="58" viewBox="0 0 59 58" fill="none" xmlns="http://www.w3.org/2000/svg">
<path d="M25.1568 31.0667C25.1596 31.064 25.1614 31.0604 25.1642 31.0577L41.5072 14.9921C41.5882 14.9125 41.651 14.8168 41.6915 14.7114C41.732 14.606 41.7491 14.4934 41.7418 14.381C41.7346 14.2686 41.703 14.159 41.6493 14.0595C41.5955 13.96 41.5209 13.8729 41.4302 13.804C38.0197 11.1977 33.82 9.78857 29.5002 9.80111C24.3224 9.80686 19.3583 11.8314 15.697 15.4307C12.0356 19.0299 9.97616 23.9099 9.9703 29C9.95734 33.2464 11.3908 37.3749 14.0422 40.7273C14.1123 40.8165 14.2009 40.8899 14.302 40.9428C14.4032 40.9957 14.5147 41.0268 14.629 41.0341H14.6806C14.7865 41.0341 14.8914 41.0135 14.9892 40.9737C15.0871 40.9338 15.176 40.8753 15.2508 40.8017L25.1494 31.0726L25.1568 31.0667ZM22.7272 31.2108L16.3331 24.8086L25.4785 15.9813L31.7906 22.301L31.0623 23.017L27.2135 19.1654C27.1393 19.091 27.0509 19.0318 26.9534 18.9911C26.8559 18.9503 26.7511 18.9289 26.6452 18.928C26.539 18.9251 26.4333 18.9437 26.3347 18.9827C26.2362 19.0216 26.1468 19.0801 26.0722 19.1545C25.9052 19.3153 25.6802 19.4044 25.4464 19.4023C25.2127 19.4002 24.9893 19.307 24.8254 19.1432C24.7513 19.0689 24.6629 19.0096 24.5655 18.9689C24.4681 18.9282 24.3634 18.9067 24.2575 18.9057C24.0447 18.9086 23.8405 18.9894 23.685 19.1323L19.5702 23.1035C19.4946 23.1764 19.4344 23.2633 19.3929 23.3592C19.3515 23.455 19.3296 23.5579 19.3286 23.6621C19.3277 23.7662 19.3476 23.8695 19.3872 23.9661C19.4268 24.0627 19.4854 24.1507 19.5596 24.225C19.6408 24.3062 19.7049 24.4024 19.7483 24.508C19.7916 24.6136 19.8134 24.7265 19.8123 24.8404C19.8112 24.9543 19.7874 25.0668 19.742 25.1716C19.6967 25.2764 19.6308 25.3714 19.5481 25.4511C19.3956 25.5986 19.3088 25.7995 19.3069 26.0098C19.305 26.2201 19.3881 26.4225 19.538 26.5726L23.456 30.4953L22.7272 31.2108ZM21.16 25.9337C21.3304 25.5983 21.4207 25.2292 21.4241 24.8544C21.4276 24.4795 21.344 24.1088 21.1798 23.7705L24.3327 20.7278C24.6734 20.8962 25.0492 20.9851 25.4306 20.9874C25.8115 20.9885 26.1879 20.9067 26.5327 20.7477L29.9201 24.1384L24.5963 29.3734L21.16 25.9337ZM14.7733 39.029C12.6855 36.0884 11.5716 32.586 11.5836 29C11.589 24.3304 13.4783 19.8535 16.8372 16.5516C20.196 13.2497 24.7501 11.3923 29.5002 11.387C33.1482 11.3759 36.7109 12.4714 39.7022 14.524L32.9314 21.1795L26.0635 14.3043C25.9892 14.23 25.9008 14.1708 25.8033 14.1301C25.7058 14.0893 25.6011 14.0679 25.4952 14.067C25.3892 14.0661 25.2841 14.0857 25.1859 14.1247C25.0877 14.1637 24.9982 14.2213 24.9227 14.2943L14.6272 24.2327C14.5515 24.3056 14.4913 24.3925 14.4498 24.4884C14.4084 24.5842 14.3865 24.6871 14.3856 24.7913C14.3846 24.8954 14.4045 24.9987 14.4441 25.0953C14.4837 25.1919 14.5423 25.2799 14.6166 25.3542L21.5864 32.3323L14.7733 39.029Z" fill="#787A8E"/>
<path d="M44.9581 17.2727C44.8881 17.1834 44.7995 17.1099 44.6983 17.057C44.5971 17.0041 44.4856 16.973 44.3712 16.9658C44.2568 16.9587 44.1422 16.9756 44.035 17.0154C43.9278 17.0553 43.8305 17.1172 43.7495 17.197L35.7177 25.0922L35.7131 25.0963L35.708 25.1022L33.8504 26.9278L33.8435 26.9333L33.8366 26.9419L17.4931 43.0079C17.4121 43.0875 17.3493 43.1832 17.3088 43.2886C17.2683 43.394 17.2512 43.5066 17.2585 43.619C17.2658 43.7314 17.2973 43.841 17.351 43.9405C17.4048 44.04 17.4795 44.1271 17.5701 44.196C20.9806 46.8023 25.1803 48.2114 29.5001 48.1989C34.6779 48.1931 39.6421 46.1686 43.3034 42.5693C46.9647 38.9701 49.0242 34.0901 49.03 29C49.043 24.7535 47.6095 20.6251 44.9581 17.2727ZM27.938 34.9812L31.7868 38.8328C31.861 38.9071 31.9494 38.9664 32.0469 39.0071C32.1445 39.0478 32.2492 39.0693 32.3551 39.0702H32.3625C32.574 39.0705 32.777 38.9891 32.9281 38.8437C33.0955 38.6836 33.3201 38.5945 33.5536 38.5954C33.6695 38.5961 33.7841 38.6194 33.8907 38.664C33.9974 38.7085 34.094 38.7735 34.1749 38.855C34.2491 38.9293 34.3374 38.9885 34.4348 39.0293C34.5323 39.07 34.6369 39.0915 34.7428 39.0924H34.7506C34.9618 39.0927 35.1646 39.0113 35.3153 38.8659L39.4301 34.8947C39.5057 34.8217 39.5659 34.7349 39.6074 34.639C39.6488 34.5432 39.6707 34.4402 39.6717 34.3361C39.6727 34.232 39.6528 34.1287 39.6131 34.0321C39.5735 33.9355 39.5149 33.8475 39.4407 33.7732C39.3595 33.692 39.2954 33.5958 39.2521 33.4902C39.2087 33.3846 39.1869 33.2716 39.188 33.1578C39.1891 33.0439 39.213 32.9314 39.2583 32.8266C39.3036 32.7218 39.3695 32.6268 39.4522 32.547C39.6047 32.3996 39.6915 32.1987 39.6934 31.9884C39.6953 31.7781 39.6122 31.5757 39.4623 31.4256L35.5444 27.5029L36.2726 26.7869L42.6672 33.1914L33.5218 42.0187L27.2097 35.6985L27.938 34.9812ZM34.404 28.6266L37.8389 32.0663C37.6686 32.4017 37.5782 32.7708 37.5748 33.1456C37.5714 33.5205 37.6549 33.8912 37.8191 34.2295L34.6663 37.2722C34.3255 37.1037 33.9498 37.0149 33.5683 37.0126C33.1865 37.0038 32.8082 37.086 32.4658 37.2523L29.0788 33.8611L34.404 28.6266ZM29.5001 46.613C25.8521 46.6242 22.2894 45.5287 19.2982 43.476L26.0689 36.8205L32.9368 43.6957C33.087 43.8458 33.2915 43.9311 33.5056 43.9332H33.5102C33.7215 43.9334 33.9245 43.8521 34.0754 43.7066L44.3732 33.7673C44.4488 33.6944 44.509 33.6075 44.5505 33.5116C44.5919 33.4158 44.6138 33.3129 44.6148 33.2087C44.6157 33.1046 44.5959 33.0013 44.5562 32.9047C44.5166 32.8081 44.458 32.7201 44.3838 32.6458L37.4139 25.6677L44.2257 18.9714C46.3138 21.9118 47.4282 25.414 47.4167 29C47.4114 33.6696 45.522 38.1465 42.1631 41.4484C38.8043 44.7503 34.2502 46.6077 29.5001 46.613Z" fill="#787A8E"/>
<path d="M29.5 5.09766C24.6911 5.09766 19.9901 6.4995 15.9916 9.12593C11.9931 11.7524 8.87669 15.4854 7.03639 19.853C5.19608 24.2206 4.71457 29.0265 5.65275 33.6631C6.59093 38.2997 8.90666 42.5587 12.3071 45.9015C15.7075 49.2443 20.04 51.5208 24.7565 52.4431C29.473 53.3653 34.3619 52.892 38.8047 51.0829C43.2476 49.2738 47.045 46.2102 49.7167 42.2794C52.3884 38.3487 53.8145 33.7274 53.8145 29C53.8071 22.6629 51.2431 16.5874 46.6848 12.1064C42.1266 7.62544 35.9464 5.10485 29.5 5.09766ZM29.5 51.3164C25.0101 51.3164 20.6211 50.0076 16.8879 47.5554C13.1547 45.1033 10.2451 41.6179 8.52686 37.5401C6.80867 33.4623 6.35911 28.9752 7.23504 24.6463C8.11097 20.3173 10.273 16.3409 13.4479 13.2199C16.6227 10.0989 20.6676 7.97348 25.0712 7.1124C29.4748 6.25131 34.0393 6.69325 38.1874 8.38233C42.3355 10.0714 45.8809 12.9318 48.3753 16.6017C50.8698 20.2716 52.2012 24.5862 52.2012 29C52.1944 34.9166 49.8004 40.589 45.5446 44.7727C41.2888 48.9563 35.5186 51.3097 29.5 51.3164Z" fill="#000066"/>
</svg>
