<svg width="59" height="58" viewBox="0 0 59 58" fill="none" xmlns="http://www.w3.org/2000/svg">
<path d="M19.728 15.7687C19.3593 15.4062 18.8062 15.4062 18.4374 15.7687L14.8421 19.3031L13.9202 18.3968C13.5515 18.0343 12.9983 18.0343 12.6296 18.3968C12.2608 18.7593 12.2608 19.3031 12.6296 19.6656L14.1968 21.2062C14.3812 21.3874 14.6577 21.4781 14.8421 21.4781C15.1187 21.4781 15.303 21.3874 15.4874 21.2062L19.728 17.0375C20.0968 16.675 20.0968 16.0406 19.728 15.7687Z" fill="#787A8E"/>
<path d="M18.4374 23.925L14.8421 27.4593L13.9202 26.5531C13.5515 26.1906 12.9983 26.1906 12.6296 26.5531C12.2608 26.9156 12.2608 27.4593 12.6296 27.8218L14.1968 29.3625C14.3812 29.5437 14.6577 29.6343 14.8421 29.6343C15.1187 29.6343 15.303 29.5437 15.4874 29.3625L19.728 25.1937C20.0968 24.8312 20.0968 24.2875 19.728 23.925C19.3593 23.5625 18.714 23.5625 18.4374 23.925Z" fill="#787A8E"/>
<path d="M35.9531 30.8125C35.4 30.8125 35.0312 31.175 35.0312 31.7188C35.0312 32.2625 35.4 32.625 35.9531 32.625H37.7969C38.35 32.625 38.7188 32.2625 38.7188 31.7188C38.7188 31.175 38.35 30.8125 37.7969 30.8125H35.9531Z" fill="#000066"/>
<path d="M41.4844 30.8125C40.9313 30.8125 40.5625 31.175 40.5625 31.7188C40.5625 32.2625 40.9313 32.625 41.4844 32.625H47.0156V45.5844L38.9953 48.7562L29.7766 38.7875L23.6922 41.7781C22.6781 42.2312 21.5719 42.3219 20.5578 41.9594L19.3594 41.5969C19.175 41.5063 19.0828 41.325 19.0828 41.2344C19.0828 41.1438 19.0828 40.9625 19.2672 40.8719L27.1031 35.2531C27.1953 35.2531 27.3797 35.1625 27.4719 35.0719C27.4719 35.0719 27.4719 34.9812 27.5641 34.9812L30.8828 32.625H32.2656C32.8187 32.625 33.1875 32.2625 33.1875 31.7188C33.1875 31.175 32.8187 30.8125 32.2656 30.8125H30.1453L26.8266 33.1687L24.3375 30.8125H12.9062H11.9844H0V47.125H5.53125C6.08437 47.125 6.45312 46.7625 6.45312 46.2188C6.45312 45.675 6.08437 45.3125 5.53125 45.3125H1.84375V32.625H11.0625V45.3125H9.21875C8.66562 45.3125 8.29688 45.675 8.29688 46.2188C8.29688 46.7625 8.66562 47.125 9.21875 47.125H11.7078L24.3375 56.9125C24.9828 57.4562 25.7203 57.7281 26.55 57.7281C27.0109 57.7281 27.4719 57.6375 27.8406 57.4563C28.2094 57.275 28.4859 57.0031 28.7625 56.8219L29.7766 57.8187C29.8687 57.9094 29.8687 57.9094 29.9609 57.9094L30.0531 58C30.1453 58 30.3297 58 30.4219 58C30.5141 58 30.6063 58 30.7906 57.9094C30.7906 57.9094 30.8828 57.9094 30.8828 57.8187C30.975 57.8187 30.975 57.7281 31.0672 57.7281L39.2719 50.5687L48.2141 47.0344H59V30.8125H41.4844ZM36.3219 50.75L28.3016 42.8656C27.9328 42.5031 27.3797 42.5031 27.0109 42.8656C26.6422 43.2281 26.6422 43.7719 27.0109 44.1344L34.9391 51.9281L33.3719 53.2875L25.5359 45.5844C25.1672 45.2219 24.6141 45.2219 24.2453 45.5844C23.8766 45.9469 23.8766 46.4906 24.2453 46.8531L31.9891 54.4656L30.4219 55.825L22.7703 48.3031C22.4016 47.9406 21.8484 47.9406 21.4797 48.3031C21.1109 48.6656 21.1109 49.2094 21.4797 49.5719L27.4719 55.4625C27.2875 55.5531 27.1953 55.6437 27.0109 55.7344C26.55 55.9156 25.9047 55.825 25.4438 55.4625L12.9062 45.7656V32.625H23.6L25.2594 34.2562L18.1609 39.4219C17.5156 39.875 17.1469 40.7813 17.2391 41.5969C17.3313 42.4125 17.9766 43.1375 18.8062 43.4094L19.9125 43.7719C21.3875 44.225 23.0469 44.1344 24.5219 43.4094L29.4078 41.0531L37.5203 49.8438L36.3219 50.75ZM57.1562 45.3125H48.8594V32.625H57.1562V45.3125Z" fill="#000066"/>
<path d="M20.2812 9.96875C20.2812 9.425 19.9125 9.0625 19.3594 9.0625H18.4375C17.8844 9.0625 17.5156 9.425 17.5156 9.96875C17.5156 10.5125 17.8844 10.875 18.4375 10.875H19.3594C19.9125 10.875 20.2812 10.5125 20.2812 9.96875Z" fill="#787A8E"/>
<path d="M22.125 10.875H23.0469C23.6 10.875 23.9688 10.5125 23.9688 9.96875C23.9688 9.425 23.6 9.0625 23.0469 9.0625H22.125C21.5719 9.0625 21.2031 9.425 21.2031 9.96875C21.2031 10.5125 21.5719 10.875 22.125 10.875Z" fill="#787A8E"/>
<path d="M14.75 10.875H15.6719C16.225 10.875 16.5938 10.5125 16.5938 9.96875C16.5938 9.425 16.225 9.0625 15.6719 9.0625H14.75C14.1969 9.0625 13.8281 9.425 13.8281 9.96875C13.8281 10.5125 14.1969 10.875 14.75 10.875Z" fill="#787A8E"/>
<path d="M8.29688 29.9062C8.85 29.9062 9.21875 29.4531 9.21875 29V1.8125H40.5625V9.96875C40.5625 10.5125 40.9313 10.875 41.4844 10.875H49.7812V28.0938C49.7812 28.6375 50.15 29 50.7031 29C51.2562 29 51.625 28.5469 51.625 28.0938V9.96875C51.625 9.69687 51.5328 9.51562 51.3484 9.33438L42.1297 0.271875C41.9453 0.090625 41.7609 0 41.4844 0H8.29688C7.74375 0 7.375 0.453125 7.375 0.90625V29C7.375 29.5438 7.74375 29.9062 8.29688 29.9062ZM42.4062 3.17188L48.3984 9.0625H42.4062V3.17188Z" fill="#000066"/>
<path d="M27.6562 6.34375C27.6562 5.8 27.2875 5.4375 26.7344 5.4375H14.75C14.1969 5.4375 13.8281 5.8 13.8281 6.34375C13.8281 6.8875 14.1969 7.25 14.75 7.25H26.7344C27.2875 7.25 27.6562 6.8875 27.6562 6.34375Z" fill="#787A8E"/>
<path d="M36.875 21.75C37.4281 21.75 37.7969 21.3875 37.7969 20.8438C37.7969 20.3 37.4281 19.9375 36.875 19.9375H35.9531C35.4 19.9375 35.0312 20.3 35.0312 20.8438C35.0312 21.3875 35.4 21.75 35.9531 21.75H36.875Z" fill="#787A8E"/>
<path d="M40.5625 21.75C41.1156 21.75 41.4844 21.3875 41.4844 20.8438C41.4844 20.3 41.1156 19.9375 40.5625 19.9375H39.6406C39.0875 19.9375 38.7188 20.3 38.7188 20.8438C38.7188 21.3875 39.0875 21.75 39.6406 21.75H40.5625Z" fill="#787A8E"/>
<path d="M33.1875 21.75C33.7406 21.75 34.1094 21.3875 34.1094 20.8438C34.1094 20.3 33.7406 19.9375 33.1875 19.9375H32.2656C31.7125 19.9375 31.3438 20.3 31.3438 20.8438C31.3438 21.3875 31.7125 21.75 32.2656 21.75H33.1875Z" fill="#787A8E"/>
<path d="M44.25 16.3125H24.8906C24.3375 16.3125 23.9688 16.675 23.9688 17.2188C23.9688 17.7625 24.3375 18.125 24.8906 18.125H44.25C44.8031 18.125 45.1719 17.7625 45.1719 17.2188C45.1719 16.675 44.8031 16.3125 44.25 16.3125Z" fill="#787A8E"/>
<path d="M24.8906 21.75H29.5C30.0531 21.75 30.4219 21.3875 30.4219 20.8438C30.4219 20.3 30.0531 19.9375 29.5 19.9375H24.8906C24.3375 19.9375 23.9688 20.3 23.9688 20.8438C23.9688 21.3875 24.3375 21.75 24.8906 21.75Z" fill="#787A8E"/>
<path d="M45.1719 26.2812C45.1719 25.7375 44.8031 25.375 44.25 25.375H24.8906C24.3375 25.375 23.9688 25.7375 23.9688 26.2812C23.9688 26.825 24.3375 27.1875 24.8906 27.1875H44.25C44.8031 27.1875 45.1719 26.825 45.1719 26.2812Z" fill="#787A8E"/>
</svg>
