<svg width="59" height="58" viewBox="0 0 59 58" fill="none" xmlns="http://www.w3.org/2000/svg">
<g clip-path="url(#clip0)">
<path d="M35.9976 25.6388L43.6794 31.0144C44.0208 31.2534 44.4787 31.2534 44.8201 31.0144L52.5019 25.6388C54.1021 24.5246 55.0571 22.7197 55.0664 20.7919V9.35434C55.067 8.96945 54.8352 8.62089 54.4764 8.46694L44.6431 4.29094C44.3945 4.18557 44.1128 4.18557 43.8643 4.29094L34.0309 8.46694C33.6721 8.62089 33.4403 8.96945 33.4409 9.35434V20.7919C33.4485 22.7183 34.4004 24.5228 35.9976 25.6388ZM35.3997 9.98944L44.2497 6.23201L53.0997 9.98944V20.7919C53.0925 22.0967 52.4446 23.3176 51.3602 24.0699L44.2497 29.0405L37.1392 24.0641C36.0561 23.3133 35.4083 22.0947 35.3997 20.7919V9.98944Z" fill="#787A8E"/>
<path d="M41.6934 23.0066C42.1182 23.32 42.7195 23.2451 43.0514 22.8374L50.918 13.1708C51.2575 12.7538 51.1888 12.1453 50.7646 11.8116C50.3405 11.478 49.7215 11.5455 49.3821 11.9624L42.1054 20.8983L38.94 18.5599C38.659 18.3527 38.2868 18.3086 37.9638 18.4443C37.6407 18.58 37.4158 18.8748 37.3738 19.2176C37.3318 19.5605 37.479 19.8994 37.76 20.1066L41.6934 23.0066Z" fill="#787A8E"/>
<path d="M1.96667 51.2332H2.95V55.0999C2.95 56.7015 4.27076 57.9999 5.9 57.9999H11.8C13.4292 57.9999 14.75 56.7015 14.75 55.0999V51.2332H38.35V55.0999C38.35 56.7015 39.6708 57.9999 41.3 57.9999H47.2C48.8292 57.9999 50.15 56.7015 50.15 55.0999V51.2332H51.1333C52.2195 51.2332 53.1 50.3676 53.1 49.2999V34.7999C53.1037 33.3989 52.4822 32.0669 51.3998 31.1555L54.7825 28.7891C57.4188 26.9487 58.9894 23.9705 59 20.7919V6.81295C59.0006 6.42806 58.7688 6.0795 58.41 5.92555L44.6433 0.0791466C44.3948 -0.0262194 44.1131 -0.0262194 43.8645 0.0791466L30.09 5.92555C29.7312 6.0795 29.4994 6.42806 29.5 6.81295V10.6332H14.6222C12.5374 10.6339 10.6797 11.927 9.98673 13.8599L4.1949 30.0381C1.79046 30.3859 0.00671338 32.4107 0 34.7999V49.2999C0 50.3676 0.880507 51.2332 1.96667 51.2332ZM12.7833 55.0999C12.7833 55.6338 12.3431 56.0665 11.8 56.0665H5.9C5.35692 56.0665 4.91667 55.6338 4.91667 55.0999V51.2332H12.7833V55.0999ZM8.85 49.2999H6.88333V47.3665H8.85V49.2999ZM48.1833 55.0999C48.1833 55.6338 47.7431 56.0665 47.2 56.0665H41.3C40.7569 56.0665 40.3167 55.6338 40.3167 55.0999V51.2332H48.1833V55.0999ZM46.2167 49.2999H44.25V47.3665H46.2167V49.2999ZM31.4667 7.44805L44.25 2.01925L57.0333 7.44805V20.788C57.0236 23.3415 55.7606 25.7334 53.6418 27.2106L44.25 33.7868L34.8582 27.2135C32.7397 25.7365 31.4767 23.3451 31.4667 20.7919V7.44805ZM46.2167 35.7665C46.7597 35.7665 47.2 36.1993 47.2 36.7332V38.6665C47.2 39.2004 46.7597 39.6332 46.2167 39.6332H40.3167C39.7736 39.6332 39.3333 39.2004 39.3333 38.6665C39.3333 37.0649 40.6541 35.7665 42.2833 35.7665H46.2167ZM29.5 16.4332V18.3665H22.6167V16.4332H29.5ZM29.5 14.4999H27.5333V12.5665H29.5V14.4999ZM11.8423 14.4999C12.2588 13.3417 13.3725 12.5671 14.6222 12.5665H25.5667V14.4999H22.6167C21.5305 14.4999 20.65 15.3655 20.65 16.4332V18.3665C20.65 19.4343 21.5305 20.2999 22.6167 20.2999H29.5V20.7919C29.5106 23.9705 31.0812 26.9487 33.7175 28.7891L35.4 29.9665H6.30513L11.8423 14.4999ZM1.96667 34.7999C1.96667 33.1983 3.28743 31.8999 4.91667 31.8999H38.1632L41.1348 33.9801C38.9296 34.501 37.3729 36.437 37.3667 38.6665C37.3667 40.2682 38.6874 41.5665 40.3167 41.5665H46.2167C47.8459 41.5665 49.1667 40.2682 49.1667 38.6665V36.7332C49.1635 35.5391 48.416 34.469 47.2836 34.0372L49.7183 32.3329C50.6002 32.8518 51.1381 33.7896 51.1333 34.7999L51.1334 49.2999H48.1833V47.3665C48.1833 46.2988 47.3028 45.4332 46.2167 45.4332H44.25C43.1638 45.4332 42.2833 46.2988 42.2833 47.3665V49.2999H10.8167V47.3665C10.8167 46.2988 9.93616 45.4332 8.85 45.4332H6.88333C5.79717 45.4332 4.91667 46.2988 4.91667 47.3665V49.2999H1.96667V34.7999Z" fill="#000066"/>
<path d="M17.7001 14.5H16.0176C14.7675 14.5014 13.6534 15.2754 13.2348 16.4333L9.54334 26.7457C9.36303 27.2494 9.63225 27.8015 10.1446 27.9787C10.657 28.156 11.2186 27.8913 11.3989 27.3876L15.0903 17.0791C15.2288 16.6923 15.6005 16.4334 16.0176 16.4333H17.7001C18.2432 16.4333 18.6834 16.0005 18.6834 15.4667C18.6834 14.9328 18.2432 14.5 17.7001 14.5Z" fill="#000066"/>
<path d="M6.88359 41.5665H12.7836C14.4128 41.5665 15.7336 40.2681 15.7336 38.6665C15.7303 35.9984 13.531 33.8363 10.8169 33.8331H6.88359C5.25435 33.8331 3.93359 35.1315 3.93359 36.7331V38.6665C3.93359 40.2681 5.25435 41.5665 6.88359 41.5665ZM5.90026 36.7331C5.90026 36.1993 6.34051 35.7665 6.88359 35.7665H10.8169C12.4462 35.7665 13.7669 37.0648 13.7669 38.6665C13.7669 39.2003 13.3267 39.6331 12.7836 39.6331H6.88359C6.34051 39.6331 5.90026 39.2003 5.90026 38.6665V36.7331Z" fill="#000066"/>
<path d="M19.6664 47.3666H33.433C34.5192 47.3666 35.3997 46.501 35.3997 45.4333V41.5666C35.3997 40.4989 34.5192 39.6333 33.433 39.6333H19.6664C18.5802 39.6333 17.6997 40.4989 17.6997 41.5666V45.4333C17.6997 46.501 18.5802 47.3666 19.6664 47.3666ZM19.6664 41.5666H33.433V45.4333H19.6664V41.5666Z" fill="#000066"/>
</g>
<defs>
<clipPath id="clip0">
<rect width="59" height="58" fill="white"/>
</clipPath>
</defs>
</svg>
