<svg width="51" height="58" viewBox="0 0 51 58" fill="none" xmlns="http://www.w3.org/2000/svg">
<path d="M47.1334 0H21.5667C19.9375 0 18.6168 1.29835 18.6168 2.9V14.0234L8.60445 21.5789C7.53163 22.2407 6.76168 23.2858 6.45685 24.4944L1.18127 45.24C1.00525 45.9307 0.91638 46.6401 0.916749 47.3522V58H2.88342V47.3522C2.88305 46.7981 2.95213 46.2463 3.08893 45.7088L8.3655 24.9613C8.55221 24.2273 9.0247 23.5949 9.6812 23.2C9.70972 23.1826 9.73725 23.1633 9.76478 23.1439L18.6148 16.4643V28.5998L14.9696 32.1832L16.36 33.5501L29.1099 21.0182C30.0839 20.061 31.6629 20.0612 32.6366 21.0187C33.1041 21.4784 33.3667 22.1016 33.3667 22.7515V22.9023C33.368 23.4788 33.1614 24.037 32.7836 24.4779L24.7705 33.1847C24.5722 33.4006 24.4833 33.6928 24.5285 33.9803L24.6033 34.4636C25.5866 40.7566 21.9581 46.2212 15.3599 48.3836L15.9814 50.2203C18.8573 49.3231 21.4277 47.6673 23.4125 45.4333H30.4925L26.7902 50.6321C25.5402 52.3939 23.7742 53.7399 21.727 54.491L17.2863 56.1276C16.903 56.2698 16.6495 56.6306 16.6501 57.0333V58H18.6168V57.7032L22.4193 56.3016C24.8385 55.4132 26.9257 53.8226 28.4039 51.7408L32.8957 45.4333H47.1334C48.7627 45.4333 50.0834 44.135 50.0834 42.5333V2.9C50.0834 1.29835 48.7627 0 47.1334 0ZM48.1167 42.5333C48.1167 43.0672 47.6765 43.5 47.1334 43.5H24.8118C26.4797 40.6835 27.0923 37.3818 26.5434 34.1678V34.1407L34.2596 25.7559C34.9521 24.9609 35.3329 23.9489 35.3334 22.9023V22.7515C35.3343 20.3303 33.3384 18.3669 30.8755 18.3662C29.6917 18.3658 28.5562 18.8281 27.7195 19.6514L20.5834 26.6665V2.9C20.5834 2.36616 21.0237 1.93333 21.5667 1.93333H47.1334C47.6765 1.93333 48.1167 2.36616 48.1167 2.9V42.5333Z" fill="#000066"/>
</svg>
