<svg width="59" height="58" viewBox="0 0 59 58" fill="none" xmlns="http://www.w3.org/2000/svg">
<path d="M51.1334 0H25.5667C23.9375 0 22.6168 1.29835 22.6168 2.9V14.0234L12.6044 21.5789C11.5316 22.2407 10.7617 23.2858 10.4568 24.4944L5.18127 45.24C5.00525 45.9307 4.91638 46.6401 4.91675 47.3522V58H6.88342V47.3522C6.88305 46.7981 6.95213 46.2463 7.08893 45.7088L12.3655 24.9613C12.5522 24.2273 13.0247 23.5949 13.6812 23.2C13.7097 23.1826 13.7372 23.1633 13.7648 23.1439L22.6148 16.4643V28.5998L18.9696 32.1832L20.36 33.5501L33.1099 21.0182C34.0839 20.061 35.6629 20.0612 36.6366 21.0187C37.1041 21.4784 37.3667 22.1016 37.3667 22.7515V22.9023C37.368 23.4788 37.1614 24.037 36.7836 24.4779L28.7705 33.1847C28.5722 33.4006 28.4833 33.6928 28.5285 33.9803L28.6033 34.4636C29.5866 40.7566 25.9581 46.2212 19.3599 48.3836L19.9814 50.2203C22.8573 49.3231 25.4277 47.6673 27.4125 45.4333H34.4925L30.7902 50.6321C29.5402 52.3939 27.7742 53.7399 25.727 54.491L21.2863 56.1276C20.903 56.2698 20.6495 56.6306 20.6501 57.0333V58H22.6168V57.7032L26.4193 56.3016C28.8385 55.4132 30.9257 53.8226 32.4039 51.7408L36.8957 45.4333H51.1334C52.7627 45.4333 54.0834 44.135 54.0834 42.5333V2.9C54.0834 1.29835 52.7627 0 51.1334 0ZM52.1167 42.5333C52.1167 43.0672 51.6765 43.5 51.1334 43.5H28.8118C30.4797 40.6835 31.0923 37.3818 30.5434 34.1678V34.1407L38.2596 25.7559C38.9521 24.9609 39.3329 23.9489 39.3334 22.9023V22.7515C39.3343 20.3303 37.3384 18.3669 34.8755 18.3662C33.6917 18.3658 32.5562 18.8281 31.7195 19.6514L24.5834 26.6665V2.9C24.5834 2.36616 25.0237 1.93333 25.5667 1.93333H51.1334C51.6765 1.93333 52.1167 2.36616 52.1167 2.9V42.5333Z" fill="#000066"/>
<path d="M48.4921 11.0993C48.9287 10.3722 49.1614 9.54429 49.1667 8.70003C49.1667 6.0307 46.9654 3.8667 44.25 3.8667C41.5347 3.8667 39.3333 6.0307 39.3333 8.70003C39.3386 9.54429 39.5713 10.3722 40.0079 11.0993C38.636 13.398 39.4196 16.3547 41.758 17.7033C42.5136 18.139 43.374 18.3681 44.25 18.3667C46.9611 18.371 49.1625 16.2142 49.1669 13.5491C49.1684 12.6879 48.9354 11.8421 48.4921 11.0993ZM45.1879 16.2898C44.8852 16.3876 44.5685 16.4361 44.25 16.4334C42.636 16.4481 41.3155 15.1739 41.3005 13.5873C41.2976 13.2736 41.3468 12.9615 41.4465 12.6634C43.128 13.8249 45.37 13.8249 47.0515 12.6634C47.5556 14.1706 46.7211 15.7943 45.1879 16.2898ZM44.25 11.6C42.6208 11.6 41.3 10.3017 41.3 8.70003C41.3 7.09839 42.6208 5.80003 44.25 5.80003C45.8793 5.80003 47.2 7.09839 47.2 8.70003C47.2 10.3017 45.8793 11.6 44.25 11.6Z" fill="#787A8E"/>
<path d="M28.5167 5.80005H26.55V20.3H28.5167V5.80005Z" fill="#787A8E"/>
<path d="M32.4501 6.76672H30.4834V16.4334H32.4501V6.76672Z" fill="#787A8E"/>
<path d="M39.3334 29H37.3667V32.8667H39.3334V29Z" fill="#787A8E"/>
<path d="M39.3334 34.8H37.3667V39.6334H39.3334V34.8Z" fill="#787A8E"/>
<path d="M46.2167 21.2667H44.25V40.6001H46.2167V21.2667Z" fill="#787A8E"/>
<path d="M50.15 21.2667H48.1833V40.6001H50.15V21.2667Z" fill="#787A8E"/>
</svg>
