<svg width="59" height="58" viewBox="0 0 59 58" fill="none" xmlns="http://www.w3.org/2000/svg">
<path d="M58.0781 19.517C58.0781 17.2505 56.2021 15.4062 53.8965 15.4062C52.7801 15.4062 51.7292 15.834 50.94 16.6107L48.2076 19.2968L45.1719 22.2811V13.5212C48.2943 13.079 50.7031 10.4391 50.7031 7.25C50.7031 3.75188 47.8084 0.90625 44.25 0.90625H7.375C3.81656 0.90625 0.921875 3.75188 0.921875 7.25V52.5625C0.921875 53.0628 1.33487 53.4688 1.84375 53.4688H6.45312V56.1875C6.45312 56.6878 6.86613 57.0938 7.375 57.0938H44.25C44.7589 57.0938 45.1719 56.6878 45.1719 56.1875V33.9064L54.1205 25.1095L55.0673 24.1788C54.5898 26.5169 53.4254 28.6665 51.672 30.3911L47.2867 34.7021L48.5902 35.9836L52.9755 31.6725C55.5918 29.1006 57.0548 25.704 57.1406 22.0799C57.737 21.3531 58.0781 20.4649 58.0781 19.517ZM52.2436 17.8921C52.6852 17.458 53.2724 17.2188 53.8965 17.2188C55.1853 17.2188 56.2344 18.2501 56.2344 19.517C56.2344 20.1305 55.991 20.7078 55.5494 21.1419L53.4688 23.1873L50.1629 19.9375L52.2436 17.8921ZM48.8594 21.2189L49.8605 22.2031L38.2578 33.6092L37.2567 32.625L48.8594 21.2189ZM26.9344 45.134L28.8307 41.4048L31.6314 44.1579L27.8379 46.0221L26.9344 45.134ZM29.8817 39.875L35.9531 33.9064L39.259 37.1562L33.1875 43.1248L29.8817 39.875ZM44.25 2.71875C46.7916 2.71875 48.8594 4.75147 48.8594 7.25C48.8594 9.74853 46.7916 11.7812 44.25 11.7812H11.883C13.0814 10.6285 13.8281 9.02444 13.8281 7.25C13.8281 5.47556 13.0814 3.8715 11.883 2.71875H44.25ZM8.29688 11.6897V9.0625C8.29688 8.56316 8.7108 8.15625 9.21875 8.15625H11.8913C11.5234 9.92887 10.1001 11.3281 8.29688 11.6897ZM2.76562 51.6562V7.25C2.76562 4.75147 4.83339 2.71875 7.375 2.71875C9.60041 2.71875 11.4626 4.27841 11.8913 6.34375H9.21875C7.69397 6.34375 6.45312 7.56356 6.45312 9.0625V51.6562H2.76562ZM43.3281 55.2812H8.29688V13.5938H43.3281V24.0936L39.259 28.0938H11.9844V29.9062H37.4152L35.5715 31.7188H11.9844V33.5312H33.7277L27.9264 39.2343C27.8545 39.305 27.8074 39.3893 27.7641 39.4744L27.754 39.469L24.9883 44.9065C24.8113 45.2554 24.8805 45.6768 25.1617 45.9523L25.4308 46.2188L23.317 48.2968L24.6205 49.5782L26.7344 47.5002L27.0045 47.7657C27.1815 47.9397 27.4175 48.0312 27.6562 48.0312C27.7955 48.0312 27.9374 47.9995 28.0683 47.9361L33.5996 45.2173L33.594 45.2074C33.6807 45.1648 33.7664 45.1186 33.8383 45.0479L41.2133 37.7979L43.3281 35.7189V55.2812ZM40.5625 35.8748L39.5613 34.8906L51.1641 23.4846L52.1652 24.4688L40.5625 35.8748Z" fill="#000066"/>
<path d="M11.9844 17.2188H39.6406V19.0312H11.9844V17.2188Z" fill="#000066"/>
<path d="M11.9844 20.8438H39.6406V22.6562H11.9844V20.8438Z" fill="#000066"/>
<path d="M11.9844 24.4688H39.6406V26.2812H11.9844V24.4688Z" fill="#000066"/>
<path d="M11.9844 46.2188H22.125V48.0312H11.9844V46.2188Z" fill="#787A8E"/>
<path d="M11.9844 49.8438H39.6406V51.6562H11.9844V49.8438Z" fill="#787A8E"/>
</svg>
