<svg width="59" height="58" viewBox="0 0 59 58" fill="none" xmlns="http://www.w3.org/2000/svg">
<g clip-path="url(#clip0)">
<path d="M35.9978 25.6391L43.6796 31.0147C44.021 31.2536 44.4789 31.2536 44.8203 31.0147L52.5021 25.6391C54.1024 24.5248 55.0574 22.7199 55.0666 20.7922V9.35458C55.0672 8.96969 54.8355 8.62114 54.4766 8.46718L44.6433 4.29118C44.3948 4.18582 44.113 4.18582 43.8645 4.29118L34.0312 8.46718C33.6723 8.62114 33.4406 8.96969 33.4412 9.35458V20.7922C33.4488 22.7185 34.4007 24.523 35.9978 25.6391ZM35.4 9.98968L44.25 6.23225L53.1 9.98968V20.7922C53.0928 22.0969 52.4449 23.3179 51.3605 24.0702L44.25 29.0408L37.1395 24.0644C36.0564 23.3136 35.4086 22.095 35.4 20.7922V9.98968Z" fill="#787A8E"/>
<path d="M41.6934 23.0066C42.1182 23.32 42.7195 23.2451 43.0514 22.8374L50.918 13.1708C51.2575 12.7538 51.1888 12.1453 50.7646 11.8116C50.3405 11.478 49.7215 11.5455 49.3821 11.9624L42.1054 20.8983L38.94 18.5599C38.659 18.3527 38.2868 18.3086 37.9638 18.4443C37.6407 18.58 37.4158 18.8748 37.3738 19.2176C37.3318 19.5605 37.479 19.8994 37.76 20.1066L41.6934 23.0066Z" fill="#787A8E"/>
<path d="M1.96667 51.2333H2.95V55.1C2.95 56.7016 4.27076 58 5.9 58H11.8C13.4292 58 14.75 56.7016 14.75 55.1V51.2333H38.35V55.1C38.35 56.7016 39.6708 58 41.3 58H47.2C48.8292 58 50.15 56.7016 50.15 55.1V51.2333H51.1333C52.2195 51.2333 53.1 50.3678 53.1 49.3V34.8C53.1037 33.399 52.4822 32.067 51.3998 31.1557L54.7825 28.7893C57.4188 26.9488 58.9894 23.9707 59 20.792V6.81307C59.0006 6.42818 58.7688 6.07962 58.41 5.92567L44.6433 0.0792686C44.3948 -0.0260974 44.1131 -0.0260974 43.8645 0.0792686L30.09 5.92567C29.7312 6.07962 29.4994 6.42818 29.5 6.81307V10.6333H14.6222C12.5374 10.634 10.6797 11.9272 9.98673 13.8601L4.1949 30.0382C1.79046 30.3861 0.00671338 32.4109 0 34.8V49.3C0 50.3678 0.880507 51.2333 1.96667 51.2333ZM12.7833 55.1C12.7833 55.6339 12.3431 56.0667 11.8 56.0667H5.9C5.35692 56.0667 4.91667 55.6339 4.91667 55.1V51.2333H12.7833V55.1ZM8.85 49.3H6.88333V47.3667H8.85V49.3ZM48.1833 55.1C48.1833 55.6339 47.7431 56.0667 47.2 56.0667H41.3C40.7569 56.0667 40.3167 55.6339 40.3167 55.1V51.2333H48.1833V55.1ZM46.2167 49.3H44.25V47.3667H46.2167V49.3ZM31.4667 7.44817L44.25 2.01937L57.0333 7.44817V20.7882C57.0236 23.3417 55.7606 25.7335 53.6418 27.2107L44.25 33.7869L34.8582 27.2136C32.7397 25.7366 31.4767 23.3452 31.4667 20.792V7.44817ZM46.2167 35.7667C46.7597 35.7667 47.2 36.1995 47.2 36.7333V38.6667C47.2 39.2005 46.7597 39.6333 46.2167 39.6333H40.3167C39.7736 39.6333 39.3333 39.2005 39.3333 38.6667C39.3333 37.065 40.6541 35.7667 42.2833 35.7667H46.2167ZM29.5 16.4333V18.3667H22.6167V16.4333H29.5ZM29.5 14.5H27.5333V12.5667H29.5V14.5ZM11.8423 14.5C12.2588 13.3418 13.3725 12.5673 14.6222 12.5667H25.5667V14.5H22.6167C21.5305 14.5 20.65 15.3656 20.65 16.4333V18.3667C20.65 19.4344 21.5305 20.3 22.6167 20.3H29.5V20.792C29.5106 23.9707 31.0812 26.9488 33.7175 28.7893L35.4 29.9667H6.30513L11.8423 14.5ZM1.96667 34.8C1.96667 33.1984 3.28743 31.9 4.91667 31.9H38.1632L41.1348 33.9803C38.9296 34.5011 37.3729 36.4371 37.3667 38.6667C37.3667 40.2683 38.6874 41.5667 40.3167 41.5667H46.2167C47.8459 41.5667 49.1667 40.2683 49.1667 38.6667V36.7333C49.1635 35.5392 48.416 34.4692 47.2836 34.0373L49.7183 32.3331C50.6002 32.8519 51.1381 33.7897 51.1333 34.8L51.1334 49.3H48.1833V47.3667C48.1833 46.2989 47.3028 45.4333 46.2167 45.4333H44.25C43.1638 45.4333 42.2833 46.2989 42.2833 47.3667V49.3H10.8167V47.3667C10.8167 46.2989 9.93616 45.4333 8.85 45.4333H6.88333C5.79717 45.4333 4.91667 46.2989 4.91667 47.3667V49.3H1.96667V34.8Z" fill="#000066"/>
<path d="M17.6998 14.5H16.0174C14.7673 14.5014 13.6532 15.2754 13.2345 16.4333L9.54309 26.7457C9.36279 27.2494 9.632 27.8015 10.1444 27.9787C10.6568 28.156 11.2183 27.8913 11.3986 27.3876L15.0901 17.0791C15.2286 16.6923 15.6002 16.4334 16.0174 16.4333H17.6998C18.2429 16.4333 18.6832 16.0005 18.6832 15.4667C18.6832 14.9328 18.2429 14.5 17.6998 14.5Z" fill="#000066"/>
<path d="M6.88335 41.5666H12.7833C14.4126 41.5666 15.7334 40.2682 15.7334 38.6666C15.7301 35.9985 13.5307 33.8364 10.8167 33.8333H6.88335C5.25411 33.8333 3.93335 35.1316 3.93335 36.7333V38.6666C3.93335 40.2682 5.25411 41.5666 6.88335 41.5666ZM5.90002 36.7333C5.90002 36.1994 6.34027 35.7666 6.88335 35.7666H10.8167C12.4459 35.7666 13.7667 37.065 13.7667 38.6666C13.7667 39.2005 13.3264 39.6333 12.7833 39.6333H6.88335C6.34027 39.6333 5.90002 39.2005 5.90002 38.6666V36.7333Z" fill="#000066"/>
<path d="M19.6666 47.3666H33.4333C34.5194 47.3666 35.4 46.501 35.4 45.4333V41.5666C35.4 40.4989 34.5194 39.6333 33.4333 39.6333H19.6666C18.5805 39.6333 17.7 40.4989 17.7 41.5666V45.4333C17.7 46.501 18.5805 47.3666 19.6666 47.3666ZM19.6666 41.5666H33.4333V45.4333H19.6666V41.5666Z" fill="#000066"/>
</g>
<defs>
<clipPath id="clip0">
<rect width="59" height="58" fill="white"/>
</clipPath>
</defs>
</svg>
