<svg width="59" height="58" viewBox="0 0 59 58" fill="none" xmlns="http://www.w3.org/2000/svg">
<path d="M58.0166 9.66675H34.4166C33.8735 9.66675 33.4333 10.0996 33.4333 10.6334V19.3334C33.4336 19.8673 33.8743 20.2997 34.4173 20.2994C34.5227 20.2992 34.6274 20.2826 34.7273 20.2498L35.9634 19.8448C37.3054 19.4129 38.7493 20.1324 39.1885 21.4516C39.6276 22.7709 38.8959 24.1903 37.5539 24.622C37.0372 24.7883 36.48 24.7883 35.9632 24.622L34.7272 24.217C34.2119 24.0483 33.6551 24.3221 33.4835 24.8287C33.4502 24.9269 33.4333 25.0299 33.4331 25.1334V32.8667H25.5665C25.0234 32.8671 24.5835 33.3003 24.5839 33.8341C24.584 33.9377 24.601 34.0406 24.6343 34.1389L25.0463 35.354C25.4856 36.6732 24.7537 38.0927 23.4117 38.5244C22.0697 38.9563 20.6258 38.2368 20.1866 36.9176C20.0175 36.4096 20.0175 35.8618 20.1866 35.3539L20.5987 34.1388C20.7703 33.6322 20.4917 33.0849 19.9765 32.9162C19.8765 32.8834 19.7718 32.8667 19.6665 32.8666H10.8166C10.2735 32.8666 9.83325 33.2994 9.83325 33.8333V57.0333C9.83325 57.5671 10.2735 58 10.8166 58H58.0166C58.5596 58 58.9999 57.5671 58.9999 57.0333V10.6334C58.9999 10.0996 58.5596 9.66675 58.0166 9.66675ZM33.4836 48.0287C33.4503 48.1269 33.4334 48.2299 33.4333 48.3334V56.0667H11.7999V34.8001H18.3027C17.5513 37.1422 18.8737 39.6397 21.2561 40.3782C23.6386 41.1169 26.1792 39.817 26.9305 37.4748C27.2097 36.6044 27.2097 35.6704 26.9305 34.8H33.4333V42.5333C33.4336 43.0671 33.8743 43.4996 34.4173 43.4992C34.5227 43.4991 34.6274 43.4824 34.7273 43.4497L35.9634 43.0447C37.3054 42.6129 38.7493 43.3322 39.1885 44.6515C39.6276 45.9708 38.8959 47.3902 37.5539 47.8219C37.0372 47.9882 36.48 47.9882 35.9632 47.8219L34.7272 47.4169C34.2121 47.2483 33.6552 47.5221 33.4836 48.0287ZM57.0332 56.0667H35.3999V49.6742C37.7824 50.4128 40.323 49.1129 41.0742 46.7708C41.8256 44.4287 40.5033 41.9312 38.1208 41.1926C37.2353 40.9181 36.2853 40.9181 35.3998 41.1926V34.8001H43.2665C43.8095 34.7997 44.2494 34.3665 44.2491 33.8327C44.2489 33.7291 44.232 33.6262 44.1987 33.5279L43.7866 32.3128C43.3475 30.9936 44.0792 29.5742 45.4212 29.1424C46.7632 28.7107 48.2071 29.43 48.6463 30.7493C48.8154 31.2572 48.8154 31.805 48.6463 32.313L48.2343 33.5281C48.0627 34.0346 48.3412 34.582 48.8565 34.7507C48.9564 34.7834 49.0611 34.8001 49.1665 34.8002H57.0331V56.0667H57.0332ZM57.0332 32.8667H50.5305C51.2819 30.5246 49.9595 28.0271 47.577 27.2886C45.1945 26.5499 42.654 27.8499 41.9027 30.192C41.6234 31.0625 41.6234 31.9964 41.9027 32.8669H35.3999V26.4743C36.7656 26.9094 38.2608 26.6746 39.4208 25.8431C41.4545 24.417 41.9273 21.6401 40.4766 19.6408C39.331 18.062 37.2767 17.3951 35.3999 17.9928V11.6001H57.0332V32.8667Z" fill="#000066"/>
<path d="M28.2877 8.3259C27.4022 8.05137 26.4522 8.05137 25.5667 8.3259V0.966667C25.5667 0.432825 25.1264 0 24.5833 0H0.983333C0.440287 0 0 0.432825 0 0.966667V24.1667C0 24.7005 0.440287 25.1333 0.983333 25.1333H8.46945C7.71806 27.4754 9.0404 29.9729 11.4229 30.7115C13.8054 31.45 16.3459 30.1502 17.0972 27.8081C17.3765 26.9376 17.3765 26.0037 17.0972 25.1332H24.5833C25.1264 25.1332 25.5667 24.7004 25.5667 24.1665V16.8073C27.9492 17.546 30.4897 16.246 31.241 13.9039C31.9924 11.5619 30.6702 9.06455 28.2877 8.3259ZM27.7208 14.9553C27.204 15.1216 26.6469 15.1216 26.1301 14.9553L24.8941 14.5503C24.3788 14.3816 23.822 14.6554 23.6504 15.1619C23.6171 15.2602 23.6001 15.3631 23.6 15.4667V23.2H15.7333C15.1903 23.2004 14.7504 23.6335 14.7507 24.1674C14.7509 24.2709 14.7678 24.3739 14.8011 24.4721L15.2132 25.6872C15.6525 27.0065 14.9206 28.4259 13.5786 28.8577C12.2366 29.2894 10.7927 28.5701 10.3535 27.2508C10.1844 26.7428 10.1844 26.1951 10.3535 25.6871L10.7655 24.472C10.9371 23.9655 10.6586 23.4181 10.1433 23.2494C10.0434 23.2167 9.93867 23.2 9.83333 23.1999H1.96667V1.93333H23.6V9.66667C23.6004 10.2005 24.041 10.633 24.5841 10.6326C24.6894 10.6325 24.7941 10.6158 24.8941 10.5831L26.1301 10.178C27.4721 9.7463 28.916 10.4656 29.3552 11.7849C29.7945 13.104 29.0627 14.5236 27.7208 14.9553Z" fill="#787A8E"/>
</svg>
