<svg width="59" height="58" viewBox="0 0 59 58" fill="none" xmlns="http://www.w3.org/2000/svg">
<path d="M17.4001 7.64648C17.8775 7.64648 18.2644 7.2661 18.2644 6.79688C18.2644 6.32765 17.8775 5.94727 17.4001 5.94727C16.9228 5.94727 16.5359 6.32765 16.5359 6.79688C16.5359 7.2661 16.9228 7.64648 17.4001 7.64648Z" fill="#787A8E"/>
<path d="M48.5134 10.811C48.9907 10.811 49.3777 10.4307 49.3777 9.96143C49.3777 9.4922 48.9907 9.11182 48.5134 9.11182C48.0361 9.11182 47.6492 9.4922 47.6492 9.96143C47.6492 10.4307 48.0361 10.811 48.5134 10.811Z" fill="black"/>
<path d="M15.3568 5.19035C15.8096 5.34011 16.2993 5.10029 16.4513 4.65555C16.6033 4.2107 16.3598 3.72902 15.9072 3.5796C14.6534 3.16522 13.2952 3.47743 12.363 4.39387C11.0151 5.71892 11.0151 7.87501 12.363 9.20017C13.0228 9.84871 13.8956 10.1944 14.7941 10.1944C15.1651 10.1944 15.5407 10.1354 15.9072 10.0143C16.3597 9.86491 16.6033 9.38323 16.4513 8.93838C16.2992 8.49352 15.8091 8.25371 15.3568 8.40358C14.7291 8.61099 14.0504 8.45569 13.5853 7.99848C12.9113 7.3359 12.9113 6.25803 13.5853 5.59545C14.0504 5.13836 14.7293 4.98327 15.3568 5.19035Z" fill="#787A8E"/>
<path d="M31.2283 23.7891C34.5642 23.7891 37.2781 21.1211 37.2781 17.8418C37.2781 14.5625 34.5642 11.8945 31.2283 11.8945C27.8924 11.8945 25.1785 14.5625 25.1785 17.8418C25.1785 21.1211 27.8925 23.7891 31.2283 23.7891ZM31.2283 13.5938C33.6111 13.5938 35.5496 15.4994 35.5496 17.8418C35.5496 20.1842 33.6111 22.0898 31.2283 22.0898C28.8455 22.0898 26.907 20.1842 26.907 17.8418C26.907 15.4994 28.8456 13.5938 31.2283 13.5938Z" fill="#000066"/>
<path d="M38.4155 56.3442L35.5494 55.4051V45.7326C36.5553 45.3819 37.2779 44.4375 37.2779 43.3299V28.6034C37.2779 26.8857 35.8564 25.4882 34.109 25.4882H28.3473C26.8996 25.4882 25.6764 26.4479 25.2991 27.7538H21.7214V0.849606C21.7214 0.380284 21.3344 0 20.8571 0H10.4861C9.05635 0 7.89329 1.14346 7.89329 2.54882V3.39842H3.57202C3.09472 3.39842 2.70776 3.77871 2.70776 4.24803V16.1425C2.70776 16.6118 3.09472 16.9921 3.57202 16.9921H10.4861C11.9158 16.9921 13.0788 15.8487 13.0788 14.4433V13.5937H19.9929V24.3554H19.1286C17.6989 24.3554 16.5358 25.4988 16.5358 26.9042C16.5358 28.3096 17.6989 29.453 19.1286 29.453H19.9929V57.1502C19.9929 57.6195 20.3798 57.9998 20.8571 57.9998C21.3344 57.9998 21.7214 57.6195 21.7214 57.1502V29.453H25.1784V43.3299C25.1784 44.4375 25.901 45.3819 26.9069 45.7326V55.4051L24.0408 56.3442C23.5879 56.4926 23.3433 56.9738 23.4941 57.4189C23.6149 57.7749 23.9521 58 24.3139 58C24.4045 58 24.4967 57.9858 24.5873 57.9562L28.0444 56.8233C28.3973 56.7077 28.6353 56.383 28.6353 56.0174V45.7326C29.6412 45.3819 30.3638 44.4375 30.3638 43.3299V42.4197C30.9341 42.5005 31.522 42.5005 32.0923 42.4197V43.3299C32.0923 44.4375 32.8149 45.3819 33.8208 45.7326V56.0174C33.8208 56.3831 34.0589 56.7078 34.4117 56.8233L37.8687 57.9562C37.9594 57.9858 38.0515 58 38.1422 58C38.504 58 38.8412 57.7749 38.962 57.4189C39.113 56.9737 38.8684 56.4925 38.4155 56.3442ZM4.43627 5.09764H7.89329V14.4433C7.89329 14.7411 7.94607 15.027 8.04194 15.2929H4.43627V5.09764ZM11.3503 14.4433C11.3503 14.9118 10.9627 15.2929 10.4861 15.2929C10.0094 15.2929 9.6218 14.9118 9.6218 14.4433C9.6218 13.9748 10.0094 13.5937 10.4861 13.5937H11.3503V14.4433ZM10.4861 11.8945C10.1831 11.8945 9.89225 11.9464 9.6218 12.0406V2.54882C9.6218 2.08029 10.0094 1.69921 10.4861 1.69921H19.9929V11.8945H10.4861ZM19.1286 27.7538C18.652 27.7538 18.2643 27.3727 18.2643 26.9042C18.2643 26.4357 18.652 26.0546 19.1286 26.0546H19.9929V27.7538H19.1286ZM28.3473 27.1874H30.3639V33.1346C30.3639 33.604 30.7509 33.9842 31.2282 33.9842C31.7055 33.9842 32.0924 33.604 32.0924 33.1346V27.1874H34.109C34.9033 27.1874 35.5494 27.8226 35.5494 28.6034V35.6835H26.9069V28.6034C26.9069 27.8226 27.5531 27.1874 28.3473 27.1874ZM33.4556 40.6458C33.3078 40.5431 33.1331 40.49 32.9566 40.49C32.8596 40.49 32.7623 40.506 32.6685 40.5386C31.7422 40.8605 30.7139 40.8605 29.7876 40.5386C29.523 40.4467 29.2297 40.4866 29.0006 40.6458C28.7715 40.8051 28.6353 41.0637 28.6353 41.3396V43.3299C28.6353 43.7984 28.2476 44.1795 27.771 44.1795C27.2944 44.1795 26.9068 43.7984 26.9068 43.3299V37.3827H35.5493V43.3299C35.5493 43.7984 35.1617 44.1795 34.6851 44.1795C34.2085 44.1795 33.8208 43.7984 33.8208 43.3299V41.3396C33.8209 41.0637 33.6848 40.8051 33.4556 40.6458Z" fill="#000066"/>
<path d="M42.4634 17.8419C42.4634 21.1211 45.1773 23.7891 48.5132 23.7891C51.8491 23.7891 54.563 21.1211 54.563 17.8419C54.563 15.7657 53.4717 13.883 51.7423 12.8118C52.0724 12.3176 52.2227 11.7202 52.157 11.1276C52.7714 10.4618 52.9981 9.50435 52.707 8.62404C52.4161 7.74374 51.6602 7.10019 50.7651 6.91667C50.311 6.13639 49.4546 5.62866 48.5132 5.62866C47.5717 5.62866 46.7154 6.13639 46.2613 6.91667C45.3662 7.10019 44.6103 7.74385 44.3193 8.62393C44.0284 9.50424 44.255 10.4618 44.8695 11.1276C44.8038 11.7202 44.9541 12.3176 45.2842 12.8119C43.5546 13.883 42.4634 15.7657 42.4634 17.8419ZM52.7227 16.8816C51.2082 16.5364 49.9967 15.407 49.5569 13.9532C49.7453 13.9551 49.9337 13.9369 50.119 13.8988C51.4456 14.42 52.4076 15.5427 52.7227 16.8816ZM46.9083 13.8985C47.085 13.9349 47.2644 13.9546 47.444 13.9546C47.4525 13.9546 47.461 13.954 47.4694 13.9539C47.0293 15.4073 45.818 16.5364 44.3037 16.8816C44.6188 15.5424 45.5813 14.4195 46.9083 13.8985ZM48.5132 22.0899C46.4006 22.0899 44.6384 20.5915 44.2658 18.6193C46.0669 18.3424 47.6074 17.2822 48.5132 15.8048C49.4189 17.2821 50.9595 18.3423 52.7606 18.6193C52.3879 20.5915 50.6258 22.0899 48.5132 22.0899ZM45.9633 9.1491C46.0786 8.79997 46.4138 8.56253 46.7856 8.56253C46.7964 8.56253 46.8073 8.56276 46.8181 8.56321C47.217 8.57352 47.5733 8.32294 47.6822 7.94606C47.7872 7.58208 48.129 7.32788 48.5133 7.32788C48.8976 7.32788 49.2394 7.58208 49.3444 7.94606C49.4532 8.32306 49.8106 8.57715 50.2085 8.56321C50.5928 8.54781 50.9445 8.78978 51.0633 9.14922C51.1821 9.50854 51.0418 9.90661 50.7222 10.1172C50.391 10.3354 50.2547 10.7478 50.3921 11.1157C50.5247 11.4708 50.4001 11.8739 50.0894 12.0959C49.7783 12.318 49.3499 12.3098 49.0474 12.0761C48.734 11.834 48.2929 11.834 47.9794 12.0761C47.6769 12.3098 47.2485 12.3181 46.9375 12.096C46.6265 11.8739 46.502 11.4707 46.6347 11.1157C46.7721 10.7478 46.6358 10.3353 46.3046 10.1171C45.9847 9.9065 45.8445 9.50854 45.9633 9.1491Z" fill="#000066"/>
<path d="M55.7008 56.3443L52.8347 55.4052V41.7792C53.6099 42.2308 54.5031 42.4804 55.4274 42.4804C55.9047 42.4804 56.2916 42.1001 56.2916 41.6308V39.3272C56.2916 37.5746 55.6801 35.8815 54.5631 34.5234V28.6035C54.5631 26.8858 53.1416 25.4883 51.3942 25.4883H45.6325C43.8851 25.4883 42.4636 26.8858 42.4636 28.6035V34.5234C41.3466 35.8815 40.735 37.5747 40.735 39.3272V41.6308C40.735 42.1001 41.122 42.4804 41.5993 42.4804C42.5237 42.4804 43.417 42.2308 44.1922 41.7791V55.4052L41.3261 56.3443C40.8732 56.4927 40.6286 56.9739 40.7794 57.419C40.9002 57.775 41.2373 58.0001 41.5992 58.0001C41.6898 58.0001 41.7819 57.9859 41.8726 57.9563L45.3296 56.8235C45.6826 56.7078 45.9206 56.3831 45.9206 56.0175V41.7792C46.6957 42.2308 47.5889 42.4804 48.5132 42.4804C49.4376 42.4804 50.3309 42.2308 51.1061 41.779V56.0175C51.1061 56.3832 51.3442 56.7079 51.697 56.8235L55.154 57.9563C55.2447 57.9859 55.3368 58.0001 55.4275 58.0001C55.7893 58.0001 56.1265 57.775 56.2473 57.419C56.3984 56.9738 56.1537 56.4926 55.7008 56.3443ZM48.5133 40.7812C47.4214 40.7812 46.3934 40.2555 45.7632 39.3751C45.6013 39.1489 45.3376 39.0144 45.0563 39.0144C44.775 39.0144 44.5114 39.1489 44.3495 39.3751C43.8895 40.0178 43.2176 40.4714 42.4636 40.6696V39.3272C42.4636 37.8789 43.0007 36.4829 43.976 35.396C44.1152 35.2409 44.1921 35.0409 44.1921 34.8339V28.6035C44.1921 27.8227 44.8382 27.1875 45.6325 27.1875H51.3942C52.1885 27.1875 52.8346 27.8227 52.8346 28.6035V34.8339C52.8346 35.0409 52.9115 35.2409 53.0507 35.396C54.0259 36.4829 54.5631 37.8789 54.5631 39.3272V40.6695C53.809 40.4714 53.1371 40.0178 52.6772 39.3751C52.5153 39.1489 52.2516 39.0144 51.9703 39.0144C51.6891 39.0144 51.4254 39.1489 51.2635 39.3751C50.6334 40.2555 49.6053 40.7812 48.5133 40.7812Z" fill="#000066"/>
</svg>
