<svg width="59" height="56" viewBox="0 0 59 56" fill="none" xmlns="http://www.w3.org/2000/svg">
<path d="M54.7866 20.3325H53.8002C52.3754 16.6693 49.9521 13.3533 46.7007 10.6718C46.7007 10.6598 46.7007 10.6598 46.7007 10.6478C46.2136 8.98386 46.5789 7.20016 47.7602 5.34464C48.369 4.38695 48.4056 3.22576 47.8454 2.24413C47.2974 1.27447 46.2623 0.66394 45.142 0.66394C45.008 0.66394 44.8741 0.675912 44.7523 0.687883C40.2345 1.23855 37.5311 3.26167 35.9723 5.14113C33.2689 4.4109 30.4681 4.03979 27.6186 4.03979C20.2755 4.03979 13.3709 6.50584 8.15893 10.983C2.89825 15.5081 0 21.5415 0 27.97C0 29.634 0.19484 31.298 0.596698 32.9261C0.596698 32.95 0.608875 32.9859 0.621053 33.0099C0.621053 33.0099 0.63323 33.0338 0.645408 33.0817C1.05944 34.7217 1.66832 36.3259 2.45986 37.8462C3.76285 40.6355 5.33375 42.9578 7.09948 44.7535C9.60805 47.2914 10.0343 50.4996 10.0951 51.7925V52.427C10.0951 52.4629 10.0951 52.4988 10.0951 52.5467C10.0951 52.6066 10.0951 52.6664 10.1073 52.7143C10.2535 54.1867 11.5321 55.324 13.0421 55.324H22.1143C23.734 55.324 25.0613 54.0191 25.0613 52.427V51.8284C26.4739 51.9362 27.8987 51.9601 29.3234 51.8883V52.439C29.3234 54.0311 30.6508 55.336 32.2704 55.336H41.3426C42.9622 55.336 44.2896 54.0311 44.2896 52.439V50.2602C44.3018 49.7455 44.5088 47.3034 46.859 45.1964C46.9686 45.1007 47.0904 45.0049 47.2 44.9091C47.2122 44.8972 47.2122 44.8972 47.2243 44.8852C47.2487 44.8612 47.2852 44.8373 47.3096 44.8134C50.354 42.1318 52.6312 38.8637 53.9463 35.2963H54.7988C57.1125 35.2963 59 33.4408 59 31.1663V24.5104C58.9878 22.188 57.1003 20.3325 54.7866 20.3325ZM56.0652 31.1184C56.0652 31.8127 55.4929 32.3754 54.7866 32.3754H52.8869C52.2415 32.3754 51.6813 32.7824 51.4865 33.3929C50.4027 36.8646 48.2594 40.0728 45.3003 42.6705C45.2881 42.6825 45.2881 42.6825 45.276 42.6945L45.2638 42.7065C45.1542 42.8022 45.0446 42.898 44.935 42.9938C44.9228 43.0057 44.9106 43.0177 44.8985 43.0177C41.7079 45.8668 41.3792 49.2187 41.3548 50.1764C41.3548 50.1884 41.3548 50.2004 41.3548 50.2123V52.415C41.3548 52.427 41.3426 52.439 41.3304 52.439H32.2582C32.246 52.439 32.2338 52.427 32.2338 52.415V50.3201C32.2338 49.9131 32.0634 49.53 31.7467 49.2546C31.4788 49.0152 31.1257 48.8835 30.7725 48.8835C30.7238 48.8835 30.6751 48.8835 30.6142 48.8955C29.6157 49.0033 28.605 49.0511 27.6064 49.0511C26.3278 49.0511 25.0369 48.9673 23.7827 48.7997C23.3686 48.7399 22.9424 48.8716 22.6258 49.1469C22.3092 49.4222 22.1265 49.8173 22.1265 50.2243V52.415C22.1265 52.427 22.1143 52.439 22.1022 52.439H13.0299C13.0177 52.439 13.0056 52.427 13.0056 52.415V51.7446C13.0056 51.7207 13.0056 51.6967 13.0056 51.6848C12.9325 50.0807 12.4211 46.0105 9.18184 42.7424C7.63529 41.1741 6.24706 39.1151 5.06584 36.6132C5.05366 36.5892 5.05366 36.5772 5.04149 36.5653C4.34737 35.2245 3.79938 33.8239 3.44623 32.3874C3.44623 32.3754 3.43406 32.3634 3.43406 32.3514C3.43406 32.3395 3.43406 32.3395 3.43406 32.3275C3.08091 30.9029 2.91042 29.4425 2.91042 27.994C2.91042 16.382 13.992 6.92483 27.6064 6.92483C30.5168 6.92483 33.3542 7.35579 36.0576 8.19376C36.6786 8.3853 37.3484 8.15785 37.7137 7.63112C38.7975 6.05094 40.9529 4.0757 45.0933 3.56095C45.1907 3.54898 45.2516 3.60883 45.276 3.65672C45.3247 3.74051 45.2881 3.81234 45.2638 3.83628C43.6442 6.37416 43.1692 9.0078 43.8755 11.4499C43.8755 11.4619 43.8877 11.4858 43.8877 11.4978C43.8999 11.9168 44.0947 12.3118 44.4357 12.5752C47.748 15.2088 50.1469 18.5488 51.3769 22.2359C51.5717 22.8225 52.1319 23.2295 52.7651 23.2295H52.7773H54.7744C55.4807 23.2295 56.053 23.7921 56.053 24.4864V31.1184H56.0652Z" fill="#787A8E"/>
<path d="M29.2016 26.5334H25.938C24.769 26.5334 23.8191 25.5996 23.8191 24.4504C23.8191 23.3012 24.769 22.3674 25.938 22.3674H31.7101C32.5139 22.3674 33.1715 21.721 33.1715 20.9309C33.1715 20.1408 32.5139 19.4944 31.7101 19.4944H29.0433V17.567C29.0433 16.7769 28.3857 16.1305 27.582 16.1305C26.7783 16.1305 26.1207 16.7769 26.1207 17.567V19.4944H25.9502C23.1737 19.4944 20.9087 21.721 20.9087 24.4504C20.9087 27.1798 23.1737 29.4064 25.9502 29.4064H29.2138C30.3828 29.4064 31.3326 30.3402 31.3326 31.4894C31.3326 32.6386 30.3828 33.5724 29.2138 33.5724H23.3442C22.5405 33.5724 21.8829 34.2188 21.8829 35.0089C21.8829 35.799 22.5405 36.4455 23.3442 36.4455H26.1207V38.4087C26.1207 39.1988 26.7783 39.8453 27.582 39.8453C28.3857 39.8453 29.0433 39.1988 29.0433 38.4087V36.4455H29.2503C29.2625 36.4455 29.2746 36.4455 29.2868 36.4455C32.0389 36.4095 34.2674 34.1949 34.2674 31.4894C34.2431 28.76 31.9781 26.5334 29.2016 26.5334Z" fill="#010142"/>
</svg>
