<svg width="59" height="58" viewBox="0 0 59 58" fill="none" xmlns="http://www.w3.org/2000/svg">
<path d="M12.9062 52.5625H8.29688C8.05238 52.5625 7.8179 52.658 7.64501 52.8279C7.47213 52.9979 7.375 53.2284 7.375 53.4688C7.375 53.7091 7.47213 53.9396 7.64501 54.1096C7.8179 54.2795 8.05238 54.375 8.29688 54.375H12.9062C13.1507 54.375 13.3852 54.2795 13.5581 54.1096C13.731 53.9396 13.8281 53.7091 13.8281 53.4688C13.8281 53.2284 13.731 52.9979 13.5581 52.8279C13.3852 52.658 13.1507 52.5625 12.9062 52.5625Z" fill="#787A8E"/>
<path d="M16.5938 52.5625H15.6719C15.4274 52.5625 15.1929 52.658 15.02 52.8279C14.8471 52.9979 14.75 53.2284 14.75 53.4688C14.75 53.7091 14.8471 53.9396 15.02 54.1096C15.1929 54.2795 15.4274 54.375 15.6719 54.375H16.5938C16.8382 54.375 17.0727 54.2795 17.2456 54.1096C17.4185 53.9396 17.5156 53.7091 17.5156 53.4688C17.5156 53.2284 17.4185 52.9979 17.2456 52.8279C17.0727 52.658 16.8382 52.5625 16.5938 52.5625Z" fill="#787A8E"/>
<path d="M10.1406 17.2188H39.6406C39.8851 17.2188 40.1196 17.1233 40.2925 16.9533C40.4654 16.7834 40.5625 16.5529 40.5625 16.3125V12.6875C40.5625 12.4471 40.4654 12.2166 40.2925 12.0467C40.1196 11.8767 39.8851 11.7812 39.6406 11.7812H10.1406C9.89613 11.7812 9.66165 11.8767 9.48876 12.0467C9.31588 12.2166 9.21875 12.4471 9.21875 12.6875V16.3125C9.21875 16.5529 9.31588 16.7834 9.48876 16.9533C9.66165 17.1233 9.89613 17.2188 10.1406 17.2188ZM11.0625 13.5938H38.7188V15.4062H11.0625V13.5938Z" fill="#787A8E"/>
<path d="M10.1406 24.4688H39.6406C39.8851 24.4688 40.1196 24.3733 40.2925 24.2033C40.4654 24.0334 40.5625 23.8029 40.5625 23.5625V19.9375C40.5625 19.6971 40.4654 19.4666 40.2925 19.2967C40.1196 19.1267 39.8851 19.0312 39.6406 19.0312H10.1406C9.89613 19.0312 9.66165 19.1267 9.48876 19.2967C9.31588 19.4666 9.21875 19.6971 9.21875 19.9375V23.5625C9.21875 23.8029 9.31588 24.0334 9.48876 24.2033C9.66165 24.3733 9.89613 24.4688 10.1406 24.4688ZM11.0625 20.8438H38.7188V22.6562H11.0625V20.8438Z" fill="#787A8E"/>
<path d="M10.1406 31.7188H39.6406C39.8851 31.7188 40.1196 31.6233 40.2925 31.4533C40.4654 31.2834 40.5625 31.0529 40.5625 30.8125V27.1875C40.5625 26.9471 40.4654 26.7166 40.2925 26.5467C40.1196 26.3767 39.8851 26.2812 39.6406 26.2812C28.1202 26.2812 21.6611 26.2812 10.1406 26.2812C9.89613 26.2812 9.66165 26.3767 9.48876 26.5467C9.31588 26.7166 9.21875 26.9471 9.21875 27.1875V30.8125C9.21875 31.0529 9.31588 31.2834 9.48876 31.4533C9.66165 31.6233 9.89613 31.7188 10.1406 31.7188ZM11.0625 28.0938H38.7188V29.9062H11.0625V28.0938Z" fill="#787A8E"/>
<path d="M27.6562 33.5312H10.1406C9.89613 33.5312 9.66165 33.6267 9.48876 33.7967C9.31588 33.9666 9.21875 34.1971 9.21875 34.4375C9.21875 34.6779 9.31588 34.9084 9.48876 35.0783C9.66165 35.2483 9.89613 35.3438 10.1406 35.3438H27.6562C27.9007 35.3438 28.1352 35.2483 28.3081 35.0783C28.481 34.9084 28.5781 34.6779 28.5781 34.4375C28.5781 34.1971 28.481 33.9666 28.3081 33.7967C28.1352 33.6267 27.9007 33.5312 27.6562 33.5312Z" fill="#787A8E"/>
<path d="M22.125 36.25H10.1406C9.89613 36.25 9.66165 36.3455 9.48876 36.5154C9.31588 36.6854 9.21875 36.9159 9.21875 37.1562C9.21875 37.3966 9.31588 37.6271 9.48876 37.7971C9.66165 37.967 9.89613 38.0625 10.1406 38.0625H22.125C22.3695 38.0625 22.604 37.967 22.7769 37.7971C22.9497 37.6271 23.0469 37.3966 23.0469 37.1562C23.0469 36.9159 22.9497 36.6854 22.7769 36.5154C22.604 36.3455 22.3695 36.25 22.125 36.25Z" fill="#787A8E"/>
<path d="M11.9844 40.7812C12.2289 40.7812 12.4634 40.6858 12.6362 40.5158C12.8091 40.3459 12.9062 40.1154 12.9062 39.875C12.9062 39.6346 12.8091 39.4041 12.6362 39.2342C12.4634 39.0642 12.2289 38.9688 11.9844 38.9688H10.1406C9.89613 38.9688 9.66165 39.0642 9.48876 39.2342C9.31588 39.4041 9.21875 39.6346 9.21875 39.875C9.21875 40.1154 9.31588 40.3459 9.48876 40.5158C9.66165 40.6858 9.89613 40.7812 10.1406 40.7812H11.9844Z" fill="#787A8E"/>
<path d="M15.6719 40.7812C15.9164 40.7812 16.1509 40.6858 16.3237 40.5158C16.4966 40.3459 16.5938 40.1154 16.5938 39.875C16.5938 39.6346 16.4966 39.4041 16.3237 39.2342C16.1509 39.0642 15.9164 38.9688 15.6719 38.9688H14.75C14.5055 38.9688 14.271 39.0642 14.0981 39.2342C13.9253 39.4041 13.8281 39.6346 13.8281 39.875C13.8281 40.1154 13.9253 40.3459 14.0981 40.5158C14.271 40.6858 14.5055 40.7812 14.75 40.7812H15.6719Z" fill="#787A8E"/>
<path d="M55.3125 43.5C55.3091 40.7737 54.2654 38.1477 52.3878 36.1412C50.5103 34.1347 47.9353 32.8936 45.1719 32.6631V9.0625C45.1719 8.94349 45.148 8.82564 45.1017 8.71569C45.0554 8.60573 44.9875 8.50582 44.9019 8.42167L37.5269 1.17167C37.4413 1.08752 37.3396 1.02076 37.2278 0.975223C37.1159 0.929683 36.9961 0.906246 36.875 0.90625H5.53125C5.28675 0.90625 5.05227 1.00173 4.87939 1.17168C4.7065 1.34164 4.60938 1.57215 4.60938 1.8125V56.1875C4.60938 56.4279 4.7065 56.6584 4.87939 56.8283C5.05227 56.9983 5.28675 57.0938 5.53125 57.0938H44.25C44.4945 57.0938 44.729 56.9983 44.9019 56.8283C45.0747 56.6584 45.1719 56.4279 45.1719 56.1875V54.3369C47.9353 54.1064 50.5103 52.8653 52.3878 50.8588C54.2654 48.8523 55.3091 46.2263 55.3125 43.5ZM37.7969 4.0003L42.0245 8.15625H37.7969V4.0003ZM6.45312 55.2812V2.71875H35.9531V9.0625C35.9531 9.30285 36.0503 9.53336 36.2231 9.70332C36.396 9.87327 36.6305 9.96875 36.875 9.96875H43.3281V32.6631C40.564 32.891 37.9878 34.1315 36.1101 36.1386C34.2325 38.1458 33.1904 40.7731 33.1904 43.5C33.1904 46.2269 34.2325 48.8542 36.1101 50.8614C37.9878 52.8685 40.564 54.109 43.3281 54.3369V55.2812H6.45312ZM44.25 52.5625C42.4267 52.5625 40.6444 52.031 39.1283 51.0352C37.6123 50.0394 36.4307 48.624 35.733 46.9681C35.0352 45.3121 34.8527 43.4899 35.2084 41.732C35.5641 39.974 36.4421 38.3593 37.7314 37.0918C39.0206 35.8244 40.6632 34.9613 42.4515 34.6116C44.2398 34.262 46.0934 34.4414 47.7779 35.1273C49.4624 35.8133 50.9021 36.9748 51.9151 38.4651C52.9281 39.9555 53.4688 41.7076 53.4688 43.5C53.466 45.9027 52.4938 48.2062 50.7656 49.9051C49.0373 51.6041 46.6941 52.5598 44.25 52.5625Z" fill="#000066"/>
<path d="M49.5113 38.3278C49.4257 38.2437 49.324 38.1769 49.2122 38.1314C49.1003 38.0858 48.9805 38.0624 48.8594 38.0624C48.7383 38.0624 48.6185 38.0858 48.5066 38.1314C48.3948 38.1769 48.2931 38.2437 48.2075 38.3278L44.25 42.2182L40.2925 38.3278C40.1196 38.1579 39.8852 38.0624 39.6406 38.0624C39.3961 38.0624 39.1617 38.1579 38.9888 38.3278C38.8159 38.4978 38.7188 38.7283 38.7188 38.9687C38.7187 39.209 38.8159 39.4395 38.9888 39.6095L42.9463 43.4999L38.9888 47.3903C38.8159 47.5603 38.7187 47.7908 38.7188 48.0312C38.7188 48.2715 38.8159 48.502 38.9888 48.672C39.1617 48.842 39.3961 48.9374 39.6406 48.9374C39.8852 48.9374 40.1196 48.842 40.2925 48.672L44.25 44.7816L48.2075 48.672C48.3804 48.842 48.6149 48.9374 48.8594 48.9374C49.1039 48.9374 49.3384 48.842 49.5113 48.672C49.6842 48.502 49.7813 48.2715 49.7813 48.0312C49.7813 47.7908 49.6842 47.5603 49.5113 47.3903L45.5538 43.4999L49.5113 39.6095C49.5969 39.5253 49.6648 39.4254 49.7111 39.3155C49.7575 39.2055 49.7813 39.0877 49.7813 38.9687C49.7813 38.8496 49.7575 38.7318 49.7111 38.6218C49.6648 38.5119 49.5969 38.412 49.5113 38.3278Z" fill="#787A8E"/>
</svg>
