<svg width="117" height="30" viewBox="0 0 117 30" fill="none" xmlns="http://www.w3.org/2000/svg">
<path fill-rule="evenodd" clip-rule="evenodd" d="M44.745 0.717102H117V29.7603H44.5161C49.7497 26.7072 51.7823 21.2133 51.7823 15.1736C51.7823 8.17856 49.3187 3.34465 44.745 0.717102V0.717102ZM64.4262 21.8603C61.1399 21.8603 58.7685 21.0837 57.3122 19.5305C55.8564 17.9766 55.1279 15.663 55.1279 12.5888C55.1279 6.40763 58.3088 3.31735 64.6707 3.31735C67.6969 3.31735 70.0639 4.18266 71.7723 5.9145L69.0142 8.6568C67.8429 7.52415 66.3871 6.95783 64.6457 6.95783C62.7422 6.95783 61.3513 7.43111 60.4731 8.37767C59.5943 9.32423 59.1552 10.7441 59.1552 12.6372C59.1552 14.5303 59.5737 15.9502 60.412 16.8967C61.2496 17.8433 62.6692 18.3166 64.6707 18.3166C65.7441 18.3166 66.6148 18.1671 67.2815 17.8675C67.9489 17.5685 68.6076 17.1113 69.2587 16.4966L71.8945 19.069C71.0481 19.943 70.0602 20.6265 68.9294 21.1203C67.7986 21.6134 66.2973 21.8603 64.4262 21.8603ZM74.6351 21.5935L81.8832 3.48731H85.9349L93.2317 21.5935H89.0827L87.9114 18.6323H79.7115L78.5401 21.5935H74.6351V21.5935ZM80.9801 15.3559H86.6422L83.8111 8.19592L80.9801 15.3559V15.3559ZM108.248 21.5935L104.904 15.6226H100.853V21.5935H96.9483V3.60827H105.685C107.069 3.60827 108.232 3.74597 109.176 4.02138C110.119 4.29617 110.843 4.70866 111.347 5.25886C111.852 5.80905 112.21 6.42004 112.421 7.09119C112.633 7.76296 112.739 8.56003 112.739 9.48178C112.739 12.4914 111.47 14.3926 108.932 15.186L112.519 21.5935H108.248ZM100.853 12.2005H105.564C106.686 12.2005 107.492 12.0181 107.979 11.654C108.468 11.2905 108.712 10.6144 108.712 9.62755C108.712 8.60842 108.472 7.91679 107.992 7.55268C107.512 7.18857 106.686 7.00621 105.515 7.00621H100.853V12.2005V12.2005ZM55.6069 25.1639V24.6733H56.1957V24.4562C56.1957 24.1256 56.2687 23.8743 56.414 23.7038C56.56 23.5326 56.8176 23.447 57.1874 23.447H57.5461V23.9209H57.2548C57.0602 23.9209 56.9261 23.9674 56.8512 24.0604C56.7764 24.1535 56.739 24.285 56.739 24.4562V24.6733H57.5461V25.1639H56.739V27.7716H56.1957V25.1639H55.6069ZM63.6884 27.7716V24.6733H64.226V27.7716H63.6884V27.7716ZM63.6827 24.2999V23.6424H64.2316V24.2999H63.6827V24.2999ZM71.36 27.7716V24.7012L71.7916 24.6733L71.8359 24.9685C72.0193 24.7235 72.4022 24.6007 72.9848 24.6007C73.2243 24.6007 73.4201 24.6299 73.5735 24.6869C73.7264 24.7446 73.8405 24.8358 73.9153 24.9605C73.9896 25.0845 74.0401 25.2166 74.0663 25.3562C74.0925 25.4952 74.1056 25.6707 74.1056 25.8828V27.7716H73.5623V25.9883C73.5623 25.8698 73.5586 25.7749 73.5511 25.7042C73.5436 25.6335 73.5268 25.5578 73.5006 25.4759C73.4744 25.394 73.4351 25.332 73.3827 25.2892C73.3303 25.2464 73.2567 25.2104 73.1613 25.1807C73.0658 25.1509 72.9492 25.136 72.8114 25.136C72.4565 25.136 72.217 25.2129 72.0941 25.3674C71.9706 25.5212 71.9089 25.7507 71.9089 26.0553V27.7716H71.36V27.7716ZM82.1246 27.8274C81.7067 27.8274 81.4161 27.7449 81.2533 27.5799C81.0911 27.4143 81.0094 27.1848 81.0094 26.8914C81.0094 26.4529 81.1566 26.1539 81.4498 25.9939C81.7429 25.8345 82.2818 25.7544 83.0664 25.7544H83.2342C83.2267 25.5131 83.1737 25.345 83.0745 25.2501C82.9754 25.1552 82.7689 25.1081 82.4552 25.1081C82.1227 25.1081 81.8165 25.1956 81.5365 25.3699L81.2508 24.9462C81.378 24.8612 81.5564 24.7818 81.7859 24.7099C82.0155 24.6373 82.2556 24.6007 82.5057 24.6007C82.7714 24.6007 82.986 24.623 83.15 24.6677C83.3147 24.7124 83.4419 24.7886 83.5311 24.8966C83.6209 25.0039 83.682 25.1304 83.7132 25.275C83.745 25.4201 83.7612 25.6099 83.7612 25.8438V26.9473C83.7612 27.0992 83.7768 27.1954 83.8086 27.2344C83.8404 27.2729 83.9271 27.2928 84.0693 27.2928V27.7667C84.0431 27.7735 83.9683 27.7772 83.8454 27.7772C83.677 27.7772 83.5567 27.7518 83.4837 27.6997C83.4107 27.6476 83.3539 27.5564 83.3128 27.4261C83.1226 27.6941 82.7265 27.8274 82.1246 27.8274ZM82.2144 27.3597C82.5731 27.3597 82.8325 27.2841 82.9934 27.134C83.1537 26.9832 83.2342 26.7407 83.2342 26.4064V26.2172H83.0945C82.661 26.2172 82.3342 26.2364 82.1134 26.2755C81.8932 26.3146 81.741 26.3778 81.6568 26.4653C81.5726 26.5521 81.5308 26.6818 81.5308 26.8523C81.5308 27.0273 81.5814 27.1551 81.6824 27.2369C81.7828 27.3188 81.9606 27.3597 82.2144 27.3597ZM91.0013 27.7716V24.7012L91.4329 24.6733L91.4778 24.9685C91.6605 24.7235 92.0435 24.6007 92.6267 24.6007C92.8655 24.6007 93.0614 24.6299 93.2148 24.6869C93.3682 24.7446 93.4818 24.8358 93.5566 24.9605C93.6315 25.0845 93.682 25.2166 93.7082 25.3562C93.7344 25.4952 93.7468 25.6707 93.7468 25.8828V27.7716H93.2036V25.9883C93.2036 25.8698 93.1998 25.7749 93.1924 25.7042C93.1849 25.6335 93.168 25.5578 93.1418 25.4759C93.1156 25.394 93.0763 25.332 93.0246 25.2892C92.9722 25.2464 92.898 25.2104 92.8032 25.1807C92.7077 25.1509 92.5911 25.136 92.4526 25.136C92.0977 25.136 91.8589 25.2129 91.7354 25.3674C91.6125 25.5212 91.5507 25.7507 91.5507 26.0553V27.7716H91.0013V27.7716ZM102.204 27.8274C101.639 27.8274 101.245 27.6891 101.021 27.4125C100.797 27.1358 100.685 26.737 100.685 26.2172C100.685 25.693 100.798 25.2929 101.024 25.0163C101.25 24.739 101.65 24.6007 102.226 24.6007C102.723 24.6007 103.109 24.7552 103.386 25.0634L102.988 25.4368C102.786 25.2284 102.532 25.1248 102.226 25.1248C101.86 25.1248 101.603 25.2166 101.455 25.4009C101.308 25.5845 101.234 25.8605 101.234 26.2283C101.234 26.5999 101.307 26.8784 101.453 27.0639C101.598 27.25 101.856 27.343 102.226 27.343C102.517 27.343 102.781 27.2369 103.016 27.0254L103.38 27.3709C103.209 27.5266 103.035 27.642 102.859 27.7164C102.683 27.7902 102.465 27.8274 102.204 27.8274ZM111.584 27.833C111.334 27.833 111.117 27.8051 110.934 27.7499C110.751 27.6941 110.604 27.6196 110.495 27.5266C110.384 27.4336 110.296 27.3157 110.228 27.173C110.161 27.0298 110.115 26.8827 110.091 26.7326C110.067 26.5819 110.054 26.4101 110.054 26.2172C110.054 25.9753 110.076 25.765 110.119 25.5845C110.162 25.4046 110.236 25.2365 110.343 25.0802C110.45 24.9239 110.606 24.8054 110.814 24.7235C111.021 24.6416 111.274 24.6007 111.573 24.6007C111.753 24.6007 111.911 24.6193 112.05 24.6565C112.187 24.6937 112.303 24.7403 112.397 24.7961C112.49 24.8519 112.569 24.9288 112.632 25.0275C112.696 25.1255 112.744 25.2204 112.778 25.3116C112.812 25.4027 112.837 25.5175 112.854 25.6571C112.87 25.7966 112.88 25.9201 112.884 26.0274C112.888 26.1353 112.888 26.2693 112.884 26.4287H110.581C110.6 26.737 110.681 26.9702 110.825 27.1284C110.969 27.2859 111.222 27.3653 111.584 27.3653C111.816 27.3653 112.005 27.3399 112.15 27.2897C112.296 27.2394 112.438 27.1625 112.576 27.0583L112.867 27.4373C112.527 27.7015 112.1 27.833 111.584 27.833V27.833ZM111.556 25.0802C111.22 25.0802 110.981 25.1534 110.839 25.3004C110.697 25.4468 110.613 25.6633 110.587 25.9498H112.369C112.361 25.8307 112.353 25.7371 112.343 25.6682C112.334 25.5994 112.313 25.5224 112.282 25.4368C112.25 25.3512 112.207 25.2861 112.153 25.2421C112.099 25.1974 112.022 25.159 111.921 25.1273C111.819 25.0957 111.698 25.0802 111.556 25.0802Z" fill="#000066"/>
<path d="M0 29.2148V1.17219C6.36185 1.17219 16.4173 0.378222 21.1482 3.32025C19.7866 4.82383 18.7743 6.67477 18.1331 8.86935C15.9383 6.20521 10.2201 6.73556 6.24085 6.73556V23.8034C15.0489 23.8034 19.5589 24.4721 19.5589 15.1746C19.5589 11.4051 20.2912 7.58473 22.9095 4.72024H22.9101C25.3888 2.053 29.2439 0.71814 34.4756 0.71814C44.4456 0.71814 49.4303 5.53716 49.4303 15.1746C49.4303 33.537 29.668 30.7556 24.5056 27.0606C26.0243 25.4627 26.9106 23.5565 27.4345 21.4209C30.1826 25.2816 38.4555 24.9789 41.1162 21.9301C43.8032 18.8504 43.8194 11.7376 41.1162 8.66528C38.4162 5.59671 30.5362 5.59671 27.8356 8.66528C25.0095 11.8771 26.32 17.9299 24.9141 22.0579C22.7779 28.3284 16.3181 29.2148 9.97001 29.2148H0H0Z" fill="#000066"/>
</svg>
