<svg width="118" height="30" viewBox="0 0 118 30" fill="none" xmlns="http://www.w3.org/2000/svg">
<path fill-rule="evenodd" clip-rule="evenodd" d="M44.7514 0.655273H117.006V29.973H44.5225C49.756 26.8906 51.7887 21.3455 51.7887 15.2481C51.7887 8.18711 49.325 3.30823 44.7514 0.655273ZM64.4326 21.9979C61.1462 21.9979 58.7749 21.214 57.3185 19.6461C55.8628 18.0783 55.1343 15.7428 55.1343 12.639C55.1343 6.40011 58.3152 3.28006 64.677 3.28006C67.7033 3.28006 70.0703 4.15415 71.7786 5.90171L69.0206 8.66987C67.8492 7.52654 66.3935 6.95487 64.6521 6.95487C62.7485 6.95487 61.3577 7.43262 60.4795 8.38811C59.6007 9.34422 59.1616 10.7768 59.1616 12.6878C59.1616 14.5994 59.5801 16.0327 60.4184 16.9881C61.256 17.9436 62.6756 18.4214 64.677 18.4214C65.7505 18.4214 66.6212 18.2699 67.2879 17.9681C67.9553 17.6656 68.6139 17.2042 69.2651 16.5837L71.9009 19.1809C71.0545 20.0625 70.0665 20.7525 68.9357 21.2509C67.805 21.7493 66.3037 21.9979 64.4326 21.9979ZM74.6415 21.7287L81.8896 3.45162H85.9412L93.238 21.7287H89.0891L87.9178 18.7395H79.7178L78.5465 21.7287H74.6415ZM80.9865 15.4322H86.6485L83.8175 8.20465L80.9865 15.4322ZM108.254 21.7287L104.911 15.7014H100.86V21.7287H96.9547V3.57434H105.692C107.075 3.57434 108.238 3.71272 109.182 3.99072C110.126 4.26811 110.85 4.68449 111.354 5.23987C111.858 5.79526 112.216 6.41201 112.428 7.09012C112.639 7.7676 112.745 8.57219 112.745 9.50326C112.745 12.5413 111.476 14.4604 108.938 15.2606L112.525 21.7287H108.254ZM100.86 12.247H105.57C106.693 12.247 107.498 12.0635 107.986 11.696C108.474 11.3285 108.718 10.6466 108.718 9.65041C108.718 8.62103 108.478 7.92288 107.998 7.55534C107.518 7.18779 106.693 7.00434 105.521 7.00434H100.86V12.247ZM55.6133 25.3327V24.8374H56.2021V24.6183C56.2021 24.2846 56.275 24.0316 56.4204 23.8588C56.5663 23.6866 56.8239 23.6002 57.1938 23.6002H57.5524V24.0786H57.2611C57.0665 24.0786 56.9324 24.1249 56.8576 24.2188C56.7827 24.3127 56.7453 24.4461 56.7453 24.6183V24.8374H57.5524V25.3327H56.7453V27.9656H56.2021V25.3327H55.6133ZM63.6947 27.9656V24.8374H64.2323V27.9656H63.6947ZM63.6891 24.4605V23.7968H64.238V24.4605H63.6891ZM71.3663 27.9656V24.8656L71.798 24.8374L71.8422 25.1361C72.0256 24.8882 72.4086 24.7648 72.9911 24.7648C73.2306 24.7648 73.4265 24.7936 73.5799 24.8518C73.7327 24.9101 73.8468 25.0015 73.9217 25.1273C73.9959 25.2532 74.0464 25.3859 74.0726 25.5268C74.0988 25.6677 74.1119 25.8449 74.1119 26.0584V27.9656H73.5687V26.1655C73.5687 26.0453 73.5649 25.9495 73.5574 25.8787C73.55 25.8073 73.5331 25.7303 73.5069 25.6477C73.4807 25.565 73.4414 25.5024 73.389 25.4592C73.3367 25.416 73.2631 25.3797 73.1676 25.3496C73.0722 25.3196 72.9556 25.3045 72.8177 25.3045C72.4628 25.3045 72.2233 25.3822 72.1005 25.5381C71.977 25.694 71.9152 25.9251 71.9152 26.2331V27.9656H71.3663ZM82.131 28.022C81.7131 28.022 81.4224 27.9381 81.2596 27.7715C81.0975 27.6044 81.0158 27.3727 81.0158 27.0765C81.0158 26.6338 81.163 26.332 81.4561 26.1711C81.7493 26.0096 82.2882 25.9288 83.0728 25.9288H83.2406C83.2331 25.6852 83.18 25.5156 83.0809 25.4198C82.9817 25.3246 82.7753 25.2764 82.4615 25.2764C82.1291 25.2764 81.8229 25.3647 81.5428 25.5406L81.2571 25.1136C81.3844 25.0272 81.5628 24.9476 81.7923 24.8744C82.0218 24.8011 82.2619 24.7648 82.5121 24.7648C82.7778 24.7648 82.9923 24.7867 83.1564 24.8318C83.321 24.8769 83.4482 24.9539 83.5374 25.0629C83.6273 25.1718 83.6884 25.2989 83.7196 25.4454C83.7514 25.5913 83.7676 25.7829 83.7676 26.019V27.1329C83.7676 27.2869 83.7832 27.3833 83.815 27.4228C83.8468 27.4622 83.9335 27.4816 84.0757 27.4816V27.96C84.0495 27.9675 83.9747 27.9713 83.8518 27.9713C83.6834 27.9713 83.563 27.945 83.49 27.8924C83.4171 27.8398 83.3603 27.7477 83.3191 27.6169C83.1289 27.8867 82.7328 28.022 82.131 28.022ZM82.2208 27.5493C82.5794 27.5493 82.8389 27.4735 82.9998 27.3213C83.1601 27.1698 83.2406 26.925 83.2406 26.5875V26.3959H83.1008C82.6674 26.3959 82.3405 26.4159 82.1197 26.4548C81.8996 26.4942 81.7474 26.5581 81.6632 26.6464C81.579 26.7346 81.5372 26.8649 81.5372 27.0371C81.5372 27.2136 81.5877 27.3433 81.6888 27.4253C81.7892 27.5079 81.9669 27.5493 82.2208 27.5493ZM91.0076 27.9656V24.8656L91.4392 24.8374L91.4841 25.1361C91.6669 24.8882 92.0498 24.7648 92.633 24.7648C92.8719 24.7648 93.0677 24.7936 93.2212 24.8518C93.3746 24.9101 93.4881 25.0015 93.563 25.1273C93.6378 25.2532 93.6883 25.3859 93.7145 25.5268C93.7407 25.6677 93.7532 25.8449 93.7532 26.0584V27.9656H93.2099V26.1655C93.2099 26.0453 93.2062 25.9495 93.1987 25.8787C93.1912 25.8073 93.1744 25.7303 93.1482 25.6477C93.122 25.565 93.0827 25.5024 93.0309 25.4592C92.9785 25.416 92.9043 25.3797 92.8095 25.3496C92.7141 25.3196 92.5975 25.3045 92.459 25.3045C92.1041 25.3045 91.8652 25.3822 91.7417 25.5381C91.6189 25.694 91.5571 25.9251 91.5571 26.2331V27.9656H91.0076ZM102.21 28.022C101.646 28.022 101.251 27.8817 101.028 27.6025C100.804 27.3232 100.691 26.9212 100.691 26.3959C100.691 25.8674 100.804 25.463 101.03 25.1837C101.256 24.9044 101.657 24.7648 102.233 24.7648C102.729 24.7648 103.116 24.9201 103.392 25.2313L102.994 25.6082C102.793 25.3985 102.539 25.2933 102.233 25.2933C101.866 25.2933 101.609 25.3859 101.462 25.5719C101.314 25.7572 101.24 26.0359 101.24 26.4072C101.24 26.7822 101.313 27.0634 101.459 27.2512C101.604 27.4384 101.863 27.5324 102.233 27.5324C102.524 27.5324 102.787 27.4253 103.022 27.2118L103.386 27.5605C103.215 27.7177 103.041 27.8342 102.866 27.9093C102.69 27.9844 102.471 28.022 102.21 28.022ZM111.591 28.0276C111.341 28.0276 111.124 27.9994 110.941 27.9431C110.757 27.8867 110.611 27.8116 110.501 27.7177C110.391 27.6244 110.302 27.5054 110.235 27.3608C110.167 27.2162 110.122 27.0684 110.098 26.9162C110.073 26.7647 110.061 26.5913 110.061 26.3959C110.061 26.1523 110.083 25.9395 110.126 25.7572C110.168 25.5757 110.243 25.406 110.35 25.2482C110.456 25.091 110.613 24.9708 110.82 24.8882C111.027 24.8055 111.281 24.7648 111.579 24.7648C111.759 24.7648 111.918 24.7836 112.056 24.8205C112.194 24.8581 112.31 24.9051 112.403 24.9614C112.496 25.0178 112.575 25.0954 112.639 25.195C112.702 25.2945 112.751 25.3897 112.784 25.4817C112.818 25.5738 112.843 25.6902 112.86 25.8305C112.877 25.9714 112.887 26.096 112.891 26.2049C112.894 26.3133 112.894 26.4485 112.891 26.61H110.588C110.606 26.9212 110.688 27.1567 110.832 27.3157C110.975 27.4754 111.228 27.5549 111.591 27.5549C111.822 27.5549 112.011 27.5292 112.156 27.4791C112.302 27.4284 112.445 27.3501 112.582 27.2456L112.874 27.6282C112.534 27.8943 112.107 28.0276 111.591 28.0276ZM111.563 25.2482C111.226 25.2482 110.988 25.3227 110.845 25.4705C110.703 25.6189 110.62 25.8374 110.593 26.126H112.375C112.368 26.0058 112.359 25.9113 112.35 25.8418C112.34 25.7723 112.32 25.6946 112.289 25.6082C112.257 25.5218 112.214 25.4567 112.16 25.4116C112.105 25.3665 112.028 25.3283 111.927 25.2964C111.826 25.2645 111.705 25.2482 111.563 25.2482Z" fill="#FEFEFE"/>
<path d="M0.00634766 29.4208V1.1136C6.3682 1.1136 16.4237 0.312146 21.1545 3.28256C19.7929 4.7997 18.7807 6.6681 18.1395 8.88402C15.9446 6.19412 10.2265 6.72946 6.2472 6.72946V23.9584C15.0552 23.9584 19.5653 24.6339 19.5653 15.2481C19.5653 11.4437 20.2975 7.58665 22.9159 4.69513L22.9165 4.69576C25.3951 2.00273 29.2503 0.655273 34.482 0.655273C44.452 0.655273 49.4367 5.51976 49.4367 15.2481C49.4367 33.7837 29.6744 30.9761 24.5119 27.2468C26.0307 25.6333 26.917 23.7098 27.4409 21.554C30.1889 25.4511 38.4618 25.1455 41.1226 22.0674C43.8095 18.9586 43.8258 11.7787 41.1226 8.67801C38.4226 5.57987 30.5426 5.57987 27.8419 8.67801C25.0159 11.9195 26.3263 18.0294 24.9205 22.1964C22.7843 28.526 16.3245 29.4208 9.97636 29.4208H0.00634766H0.00634766Z" fill="#FEFEFE"/>
</svg>
