<?xml version="1.0" encoding="utf-8"?>
<!-- Generator: Adobe Illustrator 25.2.1, SVG Export Plug-In . SVG Version: 6.00 Build 0)  -->
<svg version="1.1" id="Layer_1" xmlns="http://www.w3.org/2000/svg" xmlns:xlink="http://www.w3.org/1999/xlink" x="0px" y="0px"
	 viewBox="0 0 30 30" style="enable-background:new 0 0 30 30;" xml:space="preserve">
<style type="text/css">
	.st0{fill:url(#SVGID_1_);}
	.st1{fill:url(#SVGID_2_);}
	.st2{fill:url(#SVGID_3_);}
</style>
<g>
	<linearGradient id="SVGID_1_" gradientUnits="userSpaceOnUse" x1="2" y1="14.579" x2="28.6871" y2="14.579">
		<stop  offset="0" style="stop-color:#9862C2"/>
		<stop  offset="1" style="stop-color:#8041B3"/>
	</linearGradient>
	<path class="st0" d="M27.9,22.7c0,0-0.1-0.1-0.1-0.1l-1.8-1.8c1.2-2,1.9-4.2,1.9-6.7C27.8,7,22,1.2,14.9,1.2S2,7,2,14.1
		C2,21.2,7.8,27,14.9,27c2.4,0,4.7-0.7,6.6-1.8l1.8,1.8l0,0c0,0,0.1,0.1,0.1,0.1c1.2,1.1,3.1,1.1,4.3-0.1C29,25.9,29,24,27.9,22.7z
		 M14.7,21.3c-4,0-7.2-3.2-7.2-7.2c0-4,3.2-7.2,7.2-7.2c4,0,7.2,3.2,7.2,7.2C21.9,18.1,18.7,21.3,14.7,21.3z"/>
	<linearGradient id="SVGID_2_" gradientUnits="userSpaceOnUse" x1="21.0739" y1="23.5248" x2="21.1551" y2="23.5248">
		<stop  offset="0" style="stop-color:#9862C2"/>
		<stop  offset="1" style="stop-color:#8041B3"/>
	</linearGradient>
	<path class="st1" d="M21.1,23.5C21.1,23.5,21.1,23.5,21.1,23.5L21.1,23.5L21.1,23.5z"/>
	<linearGradient id="SVGID_3_" gradientUnits="userSpaceOnUse" x1="24.2239" y1="20.3759" x2="24.3028" y2="20.3759">
		<stop  offset="0" style="stop-color:#9862C2"/>
		<stop  offset="1" style="stop-color:#8041B3"/>
	</linearGradient>
	<path class="st2" d="M24.3,20.4L24.3,20.4C24.3,20.4,24.3,20.4,24.3,20.4L24.3,20.4z"/>
</g>
</svg>
