<svg width="34" height="34" viewBox="0 0 34 34" fill="none" xmlns="http://www.w3.org/2000/svg">
<path d="M10.2895 0C4.62256 0 0 4.62256 0 10.2895V23.7105C0 29.3767 4.6224 34 10.2895 34H23.7105C29.3768 34 34 29.3768 34 23.7105V10.2895C34 4.6224 29.3767 0 23.7105 0H10.2895ZM10.2895 2.68421H23.7105C27.9258 2.68421 31.3158 6.07329 31.3158 10.2895V23.7105C31.3158 27.9257 27.9257 31.3158 23.7105 31.3158H10.2895C6.07329 31.3158 2.68421 27.9258 2.68421 23.7105V10.2895C2.68421 6.07312 6.07312 2.68421 10.2895 2.68421ZM25.9474 6.26316C24.9587 6.26316 24.1579 7.06395 24.1579 8.05263C24.1579 9.04132 24.9587 9.8421 25.9474 9.8421C26.9361 9.8421 27.7368 9.04132 27.7368 8.05263C27.7368 7.06395 26.9361 6.26316 25.9474 6.26316ZM17 8.05263C12.0746 8.05263 8.05263 12.0746 8.05263 17C8.05263 21.9254 12.0746 25.9474 17 25.9474C21.9254 25.9474 25.9474 21.9254 25.9474 17C25.9474 12.0746 21.9254 8.05263 17 8.05263ZM17 10.7368C20.4744 10.7368 23.2632 13.5256 23.2632 17C23.2632 20.4744 20.4744 23.2632 17 23.2632C13.5256 23.2632 10.7368 20.4744 10.7368 17C10.7368 13.5256 13.5256 10.7368 17 10.7368Z" fill="black"/>
</svg>
