<svg width="36" height="34" viewBox="0 0 36 34" fill="none" xmlns="http://www.w3.org/2000/svg">
<path d="M8.57143 0C3.84743 0 0 3.63368 0 8.09524V25.9048C0 30.3663 3.84743 34 8.57143 34H27.4286C32.1526 34 36 30.3663 36 25.9048V8.09524C36 3.63368 32.1526 0 27.4286 0H8.57143ZM7.71429 9.71429H28.2857C28.44 9.71429 28.5855 9.73073 28.7227 9.77121L20.2969 17.721C19.0283 18.9191 16.9633 18.9191 15.6948 17.721L7.27734 9.77121C7.41449 9.73073 7.56 9.71429 7.71429 9.71429ZM6.06027 10.9207L12.5056 17L6.06027 23.0793C6.01741 22.9498 6 22.8124 6 22.6667V11.3333C6 11.1876 6.01741 11.0502 6.06027 10.9207ZM29.9397 10.9207C29.9826 11.0502 30 11.1876 30 11.3333V22.6667C30 22.8124 29.9826 22.9498 29.9397 23.0793L23.486 17L29.9397 10.9207ZM13.7143 18.1416L14.4777 18.8704C15.4462 19.7852 16.7231 20.2381 17.9916 20.2381C19.2688 20.2381 20.537 19.7852 21.5056 18.8704L22.2773 18.1416L28.7227 24.2288C28.5855 24.2693 28.44 24.2857 28.2857 24.2857H7.71429C7.56 24.2857 7.41449 24.2693 7.27734 24.2288L13.7143 18.1416Z" fill="black"/>
</svg>
