<svg width="11" height="21" viewBox="0 0 11 21" fill="none" xmlns="http://www.w3.org/2000/svg">
<path class="color" d="M1.83123 20.7083C2.0491 20.709 2.26437 20.6609 2.46121 20.5676C2.65806 20.4742 2.83148 20.3379 2.96873 20.1687L10.0125 11.4187C10.227 11.1578 10.3442 10.8305 10.3442 10.4927C10.3442 10.1549 10.227 9.82757 10.0125 9.56662L2.72082 0.816621C2.47328 0.518805 2.11758 0.33152 1.73196 0.295966C1.34634 0.260412 0.962383 0.379502 0.664567 0.627038C0.366752 0.874573 0.179466 1.23028 0.143912 1.6159C0.108358 2.00152 0.227448 2.38547 0.474984 2.68329L6.99374 10.5L0.693735 18.3166C0.515405 18.5307 0.402126 18.7913 0.367302 19.0678C0.332478 19.3442 0.377564 19.6248 0.49723 19.8764C0.616894 20.128 0.806128 20.3401 1.04254 20.4875C1.27895 20.6349 1.55264 20.7115 1.83123 20.7083Z" fill="white"/>
</svg>
