<svg width="18" height="10" viewBox="0 0 18 10" fill="none" xmlns="http://www.w3.org/2000/svg">
<path d="M0.250387 1.71291C0.249752 1.89965 0.290968 2.08416 0.371004 2.25289C0.45104 2.42161 0.567863 2.57026 0.712889 2.68791L8.21289 8.72541C8.43655 8.90926 8.71711 9.00977 9.00664 9.00977C9.29617 9.00977 9.57672 8.90926 9.80039 8.72541L17.3004 2.47541C17.5557 2.26323 17.7162 1.95834 17.7467 1.62781C17.7771 1.29728 17.6751 0.968177 17.4629 0.712906C17.2507 0.457635 16.9458 0.297105 16.6153 0.26663C16.2848 0.236156 15.9557 0.338232 15.7004 0.550406L9.00039 6.13791L2.30039 0.737906C2.11691 0.585052 1.89348 0.487956 1.65655 0.458107C1.41961 0.428257 1.17908 0.466904 0.963419 0.569473C0.747759 0.672043 0.565996 0.834243 0.439632 1.03688C0.313271 1.23952 0.247599 1.47411 0.250387 1.71291Z" fill="#000066"/>
</svg>
