<svg width="38" height="38" viewBox="0 0 38 38" fill="none" xmlns="http://www.w3.org/2000/svg">
<path d="M19 0.625C8.7625 0.625 0.625 8.7625 0.625 19C0.625 29.2375 8.7625 37.375 19 37.375C29.2375 37.375 37.375 29.2375 37.375 19C37.375 8.7625 29.2375 0.625 19 0.625ZM19 34.75C10.3375 34.75 3.25 27.6625 3.25 19C3.25 10.3375 10.3375 3.25 19 3.25C27.6625 3.25 34.75 10.3375 34.75 19C34.75 27.6625 27.6625 34.75 19 34.75Z" fill="white"/>
<path d="M26.0875 28.1875L19 21.1L11.9125 28.1875L9.8125 26.0875L16.9 19L9.8125 11.9125L11.9125 9.8125L19 16.9L26.0875 9.8125L28.1875 11.9125L21.1 19L28.1875 26.0875L26.0875 28.1875Z" fill="white"/>
</svg>
