<svg width="17" height="22" viewBox="0 0 17 22" fill="none" xmlns="http://www.w3.org/2000/svg">
<path d="M8.50629 3.29346C7.78225 3.29346 7.07447 3.50816 6.47244 3.91042C5.87042 4.31268 5.4012 4.88442 5.12412 5.55335C4.84705 6.22228 4.77455 6.95835 4.9158 7.66848C5.05706 8.37862 5.40572 9.03092 5.91769 9.54289C6.42967 10.0549 7.08197 10.4035 7.7921 10.5448C8.50223 10.686 9.2383 10.6135 9.90723 10.3365C10.5762 10.0594 11.1479 9.59016 11.5502 8.98814C11.9524 8.38612 12.1671 7.67834 12.1671 6.95429C12.1671 5.98338 11.7814 5.05223 11.0949 4.36569C10.4084 3.67915 9.47721 3.29346 8.50629 3.29346ZM8.50629 9.33735C8.03497 9.33735 7.57423 9.19758 7.18234 8.93573C6.79045 8.67388 6.48501 8.30169 6.30464 7.86625C6.12427 7.4308 6.07708 6.95165 6.16903 6.48938C6.26098 6.02711 6.48794 5.60249 6.82122 5.26922C7.1545 4.93594 7.57911 4.70898 8.04138 4.61702C8.50365 4.52507 8.9828 4.57227 9.41825 4.75263C9.8537 4.933 10.2259 5.23844 10.4877 5.63034C10.7496 6.02223 10.8893 6.48297 10.8893 6.95429C10.8877 7.58521 10.6358 8.18971 10.1891 8.63524C9.74239 9.08077 9.13721 9.33096 8.50629 9.33096V9.33735Z" fill="white"/>
<path d="M8.50634 0.277832C6.51632 0.279494 4.60783 1.06858 3.19768 2.47273C1.78754 3.87689 0.990351 5.78201 0.980225 7.772C0.980225 10.7556 2.65411 13.2537 3.88078 15.0745L4.10439 15.4067C5.32485 17.1756 6.63412 18.8815 8.02717 20.5178L8.51272 21.0864L8.99828 20.5178C10.3912 18.8813 11.7004 17.1754 12.9211 15.4067L13.1447 15.0681C14.3649 13.2473 16.0388 10.7556 16.0388 7.772C16.0287 5.7809 15.2306 3.87482 13.8191 2.47048C12.4076 1.06614 10.4975 0.277806 8.50634 0.277832ZM12.0777 14.3334L11.8477 14.672C10.7488 16.3203 9.29217 18.1667 8.50634 19.0803C7.75245 18.1667 6.26384 16.3203 5.16495 14.672L4.94134 14.3334C3.8105 12.6467 2.258 10.3403 2.258 7.74644C2.258 6.9259 2.41962 6.11339 2.73363 5.35531C3.04764 4.59723 3.50789 3.90842 4.0881 3.3282C4.66831 2.74799 5.35712 2.28774 6.1152 1.97374C6.87328 1.65973 7.68579 1.49811 8.50634 1.49811C9.32688 1.49811 10.1394 1.65973 10.8975 1.97374C11.6556 2.28774 12.3444 2.74799 12.9246 3.3282C13.5048 3.90842 13.965 4.59723 14.279 5.35531C14.5931 6.11339 14.7547 6.9259 14.7547 7.74644C14.7547 10.3659 13.2086 12.6723 12.0777 14.3334Z" fill="white"/>
</svg>
