<svg width="11" height="21" viewBox="0 0 11 21" fill="none" xmlns="http://www.w3.org/2000/svg">
<path d="M1.83172 20.7085C2.04959 20.7093 2.26485 20.6612 2.4617 20.5678C2.65854 20.4744 2.83197 20.3381 2.96922 20.1689L10.013 11.419C10.2275 11.158 10.3447 10.8307 10.3447 10.4929C10.3447 10.1551 10.2275 9.82781 10.013 9.56687L2.72131 0.816866C2.47377 0.519049 2.11807 0.331764 1.73244 0.29621C1.34682 0.260656 0.962872 0.379747 0.665055 0.627282C0.36724 0.874817 0.179955 1.23052 0.144401 1.61614C0.108847 2.00177 0.227937 2.38572 0.475472 2.68353L6.99422 10.5002L0.694223 18.3169C0.515893 18.5309 0.402615 18.7916 0.36779 19.068C0.332966 19.3444 0.378053 19.6251 0.497718 19.8767C0.617382 20.1283 0.806616 20.3403 1.04303 20.4877C1.27944 20.6352 1.55313 20.7118 1.83172 20.7085Z" fill="#787A8E"/>
</svg>
